M48
;DRILL file {KiCad 5.0.0} date Tue Jul 31 02:42:45 2018
;FORMAT={2:4/ absolute / inch / suppress leading zeros}
FMAT,2
INCH,TZ
T1C0.0118
T2C0.0197
T3C0.0390
T4C0.0394
T5C0.0512
%
G90
G05
M72
T1
X91150Y-41065
X91272Y-57365
X91845Y-39379
X92820Y-41815
X93536Y-32655
X93539Y-25665
X94180Y-56360
X94183Y-40828
X94509Y-54424
X94530Y-48245
X94717Y-39053
X94840Y-47945
X95082Y-39042
X95504Y-38659
X95650Y-41465
X95840Y-38306
X96050Y-40860
X96105Y-38065
X96450Y-31665
X96450Y-41965
X96450Y-56865
X96550Y-45865
X96650Y-41465
X96888Y-41126
X97039Y-34506
X97550Y-37565
X97550Y-38065
X97950Y-44365
X98050Y-40965
X98050Y-54565
X98050Y-60555
X98100Y-37015
X98142Y-40087
X98250Y-43365
X98319Y-50165
X98380Y-36355
X98590Y-40955
X98850Y-53365
X98850Y-59365
X99050Y-42365
X99050Y-48665
X99103Y-40517
X99250Y-47065
X99320Y-42085
X99500Y-40514
X99638Y-38955
X99821Y-43365
X99880Y-40885
X99934Y-40455
X99950Y-42265
X100050Y-34965
X100250Y-43365
X100361Y-41656
X100370Y-41165
X100550Y-55565
X100650Y-44165
X100890Y-42185
X101050Y-43365
X101050Y-44365
X101250Y-49565
X101396Y-39722
X101413Y-42332
X101523Y-39391
X101630Y-41455
X101850Y-44565
X101926Y-42469
X101950Y-51765
X102450Y-56165
X102650Y-36665
X103150Y-39465
X103350Y-42565
X103350Y-43465
X103550Y-47365
X103650Y-42065
X104550Y-35265
X104653Y-45948
X104918Y-46195
X104950Y-58265
X105350Y-46325
X105450Y-48965
X105650Y-38165
X105650Y-42265
X105850Y-35865
X105920Y-41455
X106450Y-38265
X106940Y-49335
X107250Y-38565
X107287Y-58265
T2
X105751Y-57072
X106499Y-57072
T3
X91770Y-34061
X91770Y-35833
T4
X91850Y-43065
X91850Y-44065
X91850Y-45065
X91850Y-46065
X91850Y-47065
X91850Y-48065
X91850Y-49065
X91850Y-50065
X91850Y-51065
X91850Y-52065
X91850Y-53065
X91850Y-54065
X91850Y-55065
X91850Y-56065
X91850Y-57065
X91850Y-58065
X91850Y-59065
X91850Y-60065
X91850Y-61065
X91850Y-62065
X92850Y-43065
X92850Y-44065
X92850Y-45065
X92850Y-46065
X92850Y-47065
X92850Y-48065
X92850Y-49065
X92850Y-50065
X92850Y-51065
X92850Y-52065
X92850Y-53065
X92850Y-54065
X92850Y-55065
X92850Y-56065
X92850Y-57065
X92850Y-58065
X92850Y-59065
X92850Y-60065
X92850Y-61065
X92850Y-62065
X107413Y-35565
X107413Y-36565
X107413Y-37565
X104263Y-28579
X104263Y-29579
X104263Y-30579
X104263Y-31579
X94350Y-43065
X94350Y-44065
X94350Y-45065
X94350Y-46065
X104263Y-26065
X104263Y-27065
X91350Y-26665
X91350Y-27665
X91350Y-28665
X91350Y-29665
X91350Y-30665
X91350Y-31665
X106340Y-33465
X107340Y-33465
T5
X92750Y-33565
X92750Y-36325
T0
M30
