M48
;DRILL file {KiCad 5.0.0} date Wed Aug  1 03:37:09 2018
;FORMAT={2:4/ absolute / inch / suppress leading zeros}
FMAT,2
INCH,TZ
T1C0.0118
T2C0.0197
T3C0.0390
T4C0.0394
T5C0.0512
%
G90
G05
M72
T1
X42475Y-40539
X43665Y-41339
X44765Y-47439
X44765Y-49775
X45665Y-33339
X46165Y-38939
X46670Y-36668
X46865Y-44939
X47465Y-43039
X48465Y-40539
X48606Y-36998
X49665Y-41339
X52865Y-40807
X53465Y-43739
X53695Y-49429
X54065Y-47939
X54785Y-37019
X54965Y-50039
X55065Y-49539
X55085Y-37329
X55665Y-46039
X55965Y-41739
X56865Y-39539
X57102Y-47876
X58465Y-44339
X58665Y-40439
X58665Y-43539
X58865Y-43139
X59565Y-45839
X59665Y-40739
X59665Y-42309
X59665Y-42739
X59665Y-43539
X60065Y-47904
X60065Y-48839
X60465Y-45839
X60560Y-44414
X60665Y-41539
X60697Y-43901
X60732Y-38627
X60765Y-42439
X60853Y-43369
X60945Y-41809
X60965Y-46139
X60965Y-47904
X61065Y-38939
X61215Y-35309
X61373Y-42849
X61461Y-38167
X61565Y-47904
X61575Y-44119
X61865Y-42859
X61904Y-38256
X62075Y-41079
X62145Y-42369
X62169Y-38539
X62202Y-36671
X62512Y-41591
X62515Y-41988
X62574Y-42422
X62765Y-33739
X63308Y-43884
X63565Y-45639
X63638Y-44011
X63904Y-41299
X64044Y-48829
X64057Y-37646
X64227Y-42036
X64407Y-37996
X64707Y-38296
X64965Y-40039
X65007Y-38596
X65307Y-38896
X65465Y-40039
X66015Y-40589
X66675Y-40869
X67165Y-48339
X68065Y-42539
X68365Y-40039
X68965Y-37939
X71365Y-38939
X71965Y-37939
T2
X45958Y-48239
X45958Y-48987
T3
X66997Y-32739
X68769Y-32739
T4
X71450Y-46752
X72450Y-46752
X73450Y-46752
X74450Y-46752
X69565Y-48829
X69565Y-49829
X56965Y-36839
X57965Y-36839
X58965Y-36839
X59965Y-36839
X40965Y-34339
X40965Y-35339
X41965Y-34339
X41965Y-35339
X42965Y-34339
X42965Y-35339
X43965Y-34339
X43965Y-35339
X44965Y-34339
X44965Y-35339
X45965Y-34339
X45965Y-35339
X46965Y-34339
X46965Y-35339
X47965Y-34339
X47965Y-35339
X48965Y-34339
X48965Y-35339
X49965Y-34339
X49965Y-35339
X50965Y-34339
X50965Y-35339
X51965Y-34339
X51965Y-35339
X52965Y-34339
X52965Y-35339
X53965Y-34339
X53965Y-35339
X54965Y-34339
X54965Y-35339
X55965Y-34339
X55965Y-35339
X56965Y-34339
X56965Y-35339
X57965Y-34339
X57965Y-35339
X58965Y-34339
X58965Y-35339
X59965Y-34339
X59965Y-35339
X75965Y-46752
X76965Y-46752
X65465Y-49901
X66465Y-49901
X67465Y-49901
X71365Y-33071
X72365Y-33071
X73365Y-33071
X74365Y-33071
X75365Y-33071
X76365Y-33071
T5
X66505Y-33719
X69265Y-33719
T0
M30
