G04 #@! TF.GenerationSoftware,KiCad,Pcbnew,5.0.0*
G04 #@! TF.CreationDate,2018-07-31T02:42:52+02:00*
G04 #@! TF.ProjectId,mokki-dev-board,6D6F6B6B692D6465762D626F6172642E,rev?*
G04 #@! TF.SameCoordinates,Original*
G04 #@! TF.FileFunction,Soldermask,Top*
G04 #@! TF.FilePolarity,Negative*
%FSLAX46Y46*%
G04 Gerber Fmt 4.6, Leading zero omitted, Abs format (unit mm)*
G04 Created by KiCad (PCBNEW 5.0.0) date Tue Jul 31 02:42:52 2018*
%MOMM*%
%LPD*%
G01*
G04 APERTURE LIST*
%ADD10R,2.100000X2.100000*%
%ADD11O,2.100000X2.100000*%
%ADD12C,1.400000*%
%ADD13R,1.400000X0.650000*%
%ADD14R,0.650000X1.400000*%
%ADD15C,0.100000*%
%ADD16C,1.350000*%
%ADD17C,1.550000*%
%ADD18R,1.500000X2.400000*%
%ADD19R,2.300000X1.575000*%
%ADD20R,2.300000X2.775000*%
%ADD21R,2.500000X1.875000*%
%ADD22R,1.780000X0.850000*%
%ADD23R,1.200000X2.300000*%
%ADD24R,1.800000X2.000000*%
%ADD25R,2.000000X1.800000*%
%ADD26C,2.500000*%
%ADD27C,2.150000*%
%ADD28R,3.900000X2.800000*%
%ADD29C,1.924000*%
%ADD30C,3.600000*%
G04 APERTURE END LIST*
D10*
G04 #@! TO.C,J5*
X264829235Y-68744949D03*
D11*
X264829235Y-66204949D03*
G04 #@! TD*
D10*
G04 #@! TO.C,J2*
X264829235Y-80210949D03*
D11*
X264829235Y-77670949D03*
X264829235Y-75130949D03*
X264829235Y-72590949D03*
G04 #@! TD*
D10*
G04 #@! TO.C,J6*
X235840235Y-109384949D03*
D11*
X233300235Y-109384949D03*
X235840235Y-111924949D03*
X233300235Y-111924949D03*
X235840235Y-114464949D03*
X233300235Y-114464949D03*
X235840235Y-117004949D03*
X233300235Y-117004949D03*
X235840235Y-119544949D03*
X233300235Y-119544949D03*
X235840235Y-122084949D03*
X233300235Y-122084949D03*
X235840235Y-124624949D03*
X233300235Y-124624949D03*
X235840235Y-127164949D03*
X233300235Y-127164949D03*
X235840235Y-129704949D03*
X233300235Y-129704949D03*
X235840235Y-132244949D03*
X233300235Y-132244949D03*
X235840235Y-134784949D03*
X233300235Y-134784949D03*
X235840235Y-137324949D03*
X233300235Y-137324949D03*
X235840235Y-139864949D03*
X233300235Y-139864949D03*
X235840235Y-142404949D03*
X233300235Y-142404949D03*
X235840235Y-144944949D03*
X233300235Y-144944949D03*
X235840235Y-147484949D03*
X233300235Y-147484949D03*
X235840235Y-150024949D03*
X233300235Y-150024949D03*
X235840235Y-152564949D03*
X233300235Y-152564949D03*
X235840235Y-155104949D03*
X233300235Y-155104949D03*
X235840235Y-157644949D03*
X233300235Y-157644949D03*
G04 #@! TD*
D12*
G04 #@! TO.C,Y2*
X268607466Y-144962516D03*
X270507466Y-144962516D03*
G04 #@! TD*
D13*
G04 #@! TO.C,U1*
X247920235Y-106784949D03*
X247920235Y-106284949D03*
X247920235Y-105784949D03*
X247920235Y-105284949D03*
X247920235Y-104784949D03*
X247920235Y-104284949D03*
X247920235Y-103784949D03*
X247920235Y-103284949D03*
X247920235Y-102784949D03*
X247920235Y-102284949D03*
X247920235Y-101784949D03*
X247920235Y-101284949D03*
X247920235Y-100784949D03*
X247920235Y-100284949D03*
X247920235Y-99784949D03*
X247920235Y-99284949D03*
D14*
X249870235Y-97334949D03*
X250370235Y-97334949D03*
X250870235Y-97334949D03*
X251370235Y-97334949D03*
X251870235Y-97334949D03*
X252370235Y-97334949D03*
X252870235Y-97334949D03*
X253370235Y-97334949D03*
X253870235Y-97334949D03*
X254370235Y-97334949D03*
X254870235Y-97334949D03*
X255370235Y-97334949D03*
X255870235Y-97334949D03*
X256370235Y-97334949D03*
X256870235Y-97334949D03*
X257370235Y-97334949D03*
D13*
X259320235Y-99284949D03*
X259320235Y-99784949D03*
X259320235Y-100284949D03*
X259320235Y-100784949D03*
X259320235Y-101284949D03*
X259320235Y-101784949D03*
X259320235Y-102284949D03*
X259320235Y-102784949D03*
X259320235Y-103284949D03*
X259320235Y-103784949D03*
X259320235Y-104284949D03*
X259320235Y-104784949D03*
X259320235Y-105284949D03*
X259320235Y-105784949D03*
X259320235Y-106284949D03*
X259320235Y-106784949D03*
D14*
X257370235Y-108734949D03*
X256870235Y-108734949D03*
X256370235Y-108734949D03*
X255870235Y-108734949D03*
X255370235Y-108734949D03*
X254870235Y-108734949D03*
X254370235Y-108734949D03*
X253870235Y-108734949D03*
X253370235Y-108734949D03*
X252870235Y-108734949D03*
X252370235Y-108734949D03*
X251870235Y-108734949D03*
X251370235Y-108734949D03*
X250870235Y-108734949D03*
X250370235Y-108734949D03*
X249870235Y-108734949D03*
G04 #@! TD*
D15*
G04 #@! TO.C,C1*
G36*
X249750816Y-117601574D02*
X249783578Y-117606434D01*
X249815706Y-117614482D01*
X249846891Y-117625640D01*
X249876831Y-117639801D01*
X249905240Y-117656828D01*
X249931843Y-117676558D01*
X249956384Y-117698800D01*
X249978626Y-117723341D01*
X249998356Y-117749944D01*
X250015383Y-117778353D01*
X250029544Y-117808293D01*
X250040702Y-117839478D01*
X250048750Y-117871606D01*
X250053610Y-117904368D01*
X250055235Y-117937449D01*
X250055235Y-118612449D01*
X250053610Y-118645530D01*
X250048750Y-118678292D01*
X250040702Y-118710420D01*
X250029544Y-118741605D01*
X250015383Y-118771545D01*
X249998356Y-118799954D01*
X249978626Y-118826557D01*
X249956384Y-118851098D01*
X249931843Y-118873340D01*
X249905240Y-118893070D01*
X249876831Y-118910097D01*
X249846891Y-118924258D01*
X249815706Y-118935416D01*
X249783578Y-118943464D01*
X249750816Y-118948324D01*
X249717735Y-118949949D01*
X248942735Y-118949949D01*
X248909654Y-118948324D01*
X248876892Y-118943464D01*
X248844764Y-118935416D01*
X248813579Y-118924258D01*
X248783639Y-118910097D01*
X248755230Y-118893070D01*
X248728627Y-118873340D01*
X248704086Y-118851098D01*
X248681844Y-118826557D01*
X248662114Y-118799954D01*
X248645087Y-118771545D01*
X248630926Y-118741605D01*
X248619768Y-118710420D01*
X248611720Y-118678292D01*
X248606860Y-118645530D01*
X248605235Y-118612449D01*
X248605235Y-117937449D01*
X248606860Y-117904368D01*
X248611720Y-117871606D01*
X248619768Y-117839478D01*
X248630926Y-117808293D01*
X248645087Y-117778353D01*
X248662114Y-117749944D01*
X248681844Y-117723341D01*
X248704086Y-117698800D01*
X248728627Y-117676558D01*
X248755230Y-117656828D01*
X248783639Y-117639801D01*
X248813579Y-117625640D01*
X248844764Y-117614482D01*
X248876892Y-117606434D01*
X248909654Y-117601574D01*
X248942735Y-117599949D01*
X249717735Y-117599949D01*
X249750816Y-117601574D01*
X249750816Y-117601574D01*
G37*
D16*
X249330235Y-118274949D03*
D15*
G36*
X251500816Y-117601574D02*
X251533578Y-117606434D01*
X251565706Y-117614482D01*
X251596891Y-117625640D01*
X251626831Y-117639801D01*
X251655240Y-117656828D01*
X251681843Y-117676558D01*
X251706384Y-117698800D01*
X251728626Y-117723341D01*
X251748356Y-117749944D01*
X251765383Y-117778353D01*
X251779544Y-117808293D01*
X251790702Y-117839478D01*
X251798750Y-117871606D01*
X251803610Y-117904368D01*
X251805235Y-117937449D01*
X251805235Y-118612449D01*
X251803610Y-118645530D01*
X251798750Y-118678292D01*
X251790702Y-118710420D01*
X251779544Y-118741605D01*
X251765383Y-118771545D01*
X251748356Y-118799954D01*
X251728626Y-118826557D01*
X251706384Y-118851098D01*
X251681843Y-118873340D01*
X251655240Y-118893070D01*
X251626831Y-118910097D01*
X251596891Y-118924258D01*
X251565706Y-118935416D01*
X251533578Y-118943464D01*
X251500816Y-118948324D01*
X251467735Y-118949949D01*
X250692735Y-118949949D01*
X250659654Y-118948324D01*
X250626892Y-118943464D01*
X250594764Y-118935416D01*
X250563579Y-118924258D01*
X250533639Y-118910097D01*
X250505230Y-118893070D01*
X250478627Y-118873340D01*
X250454086Y-118851098D01*
X250431844Y-118826557D01*
X250412114Y-118799954D01*
X250395087Y-118771545D01*
X250380926Y-118741605D01*
X250369768Y-118710420D01*
X250361720Y-118678292D01*
X250356860Y-118645530D01*
X250355235Y-118612449D01*
X250355235Y-117937449D01*
X250356860Y-117904368D01*
X250361720Y-117871606D01*
X250369768Y-117839478D01*
X250380926Y-117808293D01*
X250395087Y-117778353D01*
X250412114Y-117749944D01*
X250431844Y-117723341D01*
X250454086Y-117698800D01*
X250478627Y-117676558D01*
X250505230Y-117656828D01*
X250533639Y-117639801D01*
X250563579Y-117625640D01*
X250594764Y-117614482D01*
X250626892Y-117606434D01*
X250659654Y-117601574D01*
X250692735Y-117599949D01*
X251467735Y-117599949D01*
X251500816Y-117601574D01*
X251500816Y-117601574D01*
G37*
D16*
X251080235Y-118274949D03*
G04 #@! TD*
D15*
G04 #@! TO.C,C2*
G36*
X272878047Y-145989141D02*
X272910809Y-145994001D01*
X272942937Y-146002049D01*
X272974122Y-146013207D01*
X273004062Y-146027368D01*
X273032471Y-146044395D01*
X273059074Y-146064125D01*
X273083615Y-146086367D01*
X273105857Y-146110908D01*
X273125587Y-146137511D01*
X273142614Y-146165920D01*
X273156775Y-146195860D01*
X273167933Y-146227045D01*
X273175981Y-146259173D01*
X273180841Y-146291935D01*
X273182466Y-146325016D01*
X273182466Y-147100016D01*
X273180841Y-147133097D01*
X273175981Y-147165859D01*
X273167933Y-147197987D01*
X273156775Y-147229172D01*
X273142614Y-147259112D01*
X273125587Y-147287521D01*
X273105857Y-147314124D01*
X273083615Y-147338665D01*
X273059074Y-147360907D01*
X273032471Y-147380637D01*
X273004062Y-147397664D01*
X272974122Y-147411825D01*
X272942937Y-147422983D01*
X272910809Y-147431031D01*
X272878047Y-147435891D01*
X272844966Y-147437516D01*
X272169966Y-147437516D01*
X272136885Y-147435891D01*
X272104123Y-147431031D01*
X272071995Y-147422983D01*
X272040810Y-147411825D01*
X272010870Y-147397664D01*
X271982461Y-147380637D01*
X271955858Y-147360907D01*
X271931317Y-147338665D01*
X271909075Y-147314124D01*
X271889345Y-147287521D01*
X271872318Y-147259112D01*
X271858157Y-147229172D01*
X271846999Y-147197987D01*
X271838951Y-147165859D01*
X271834091Y-147133097D01*
X271832466Y-147100016D01*
X271832466Y-146325016D01*
X271834091Y-146291935D01*
X271838951Y-146259173D01*
X271846999Y-146227045D01*
X271858157Y-146195860D01*
X271872318Y-146165920D01*
X271889345Y-146137511D01*
X271909075Y-146110908D01*
X271931317Y-146086367D01*
X271955858Y-146064125D01*
X271982461Y-146044395D01*
X272010870Y-146027368D01*
X272040810Y-146013207D01*
X272071995Y-146002049D01*
X272104123Y-145994001D01*
X272136885Y-145989141D01*
X272169966Y-145987516D01*
X272844966Y-145987516D01*
X272878047Y-145989141D01*
X272878047Y-145989141D01*
G37*
D16*
X272507466Y-146712516D03*
D15*
G36*
X272878047Y-144239141D02*
X272910809Y-144244001D01*
X272942937Y-144252049D01*
X272974122Y-144263207D01*
X273004062Y-144277368D01*
X273032471Y-144294395D01*
X273059074Y-144314125D01*
X273083615Y-144336367D01*
X273105857Y-144360908D01*
X273125587Y-144387511D01*
X273142614Y-144415920D01*
X273156775Y-144445860D01*
X273167933Y-144477045D01*
X273175981Y-144509173D01*
X273180841Y-144541935D01*
X273182466Y-144575016D01*
X273182466Y-145350016D01*
X273180841Y-145383097D01*
X273175981Y-145415859D01*
X273167933Y-145447987D01*
X273156775Y-145479172D01*
X273142614Y-145509112D01*
X273125587Y-145537521D01*
X273105857Y-145564124D01*
X273083615Y-145588665D01*
X273059074Y-145610907D01*
X273032471Y-145630637D01*
X273004062Y-145647664D01*
X272974122Y-145661825D01*
X272942937Y-145672983D01*
X272910809Y-145681031D01*
X272878047Y-145685891D01*
X272844966Y-145687516D01*
X272169966Y-145687516D01*
X272136885Y-145685891D01*
X272104123Y-145681031D01*
X272071995Y-145672983D01*
X272040810Y-145661825D01*
X272010870Y-145647664D01*
X271982461Y-145630637D01*
X271955858Y-145610907D01*
X271931317Y-145588665D01*
X271909075Y-145564124D01*
X271889345Y-145537521D01*
X271872318Y-145509112D01*
X271858157Y-145479172D01*
X271846999Y-145447987D01*
X271838951Y-145415859D01*
X271834091Y-145383097D01*
X271832466Y-145350016D01*
X271832466Y-144575016D01*
X271834091Y-144541935D01*
X271838951Y-144509173D01*
X271846999Y-144477045D01*
X271858157Y-144445860D01*
X271872318Y-144415920D01*
X271889345Y-144387511D01*
X271909075Y-144360908D01*
X271931317Y-144336367D01*
X271955858Y-144314125D01*
X271982461Y-144294395D01*
X272010870Y-144277368D01*
X272040810Y-144263207D01*
X272071995Y-144252049D01*
X272104123Y-144244001D01*
X272136885Y-144239141D01*
X272169966Y-144237516D01*
X272844966Y-144237516D01*
X272878047Y-144239141D01*
X272878047Y-144239141D01*
G37*
D16*
X272507466Y-144962516D03*
G04 #@! TD*
D15*
G04 #@! TO.C,C3*
G36*
X253499816Y-117601574D02*
X253532578Y-117606434D01*
X253564706Y-117614482D01*
X253595891Y-117625640D01*
X253625831Y-117639801D01*
X253654240Y-117656828D01*
X253680843Y-117676558D01*
X253705384Y-117698800D01*
X253727626Y-117723341D01*
X253747356Y-117749944D01*
X253764383Y-117778353D01*
X253778544Y-117808293D01*
X253789702Y-117839478D01*
X253797750Y-117871606D01*
X253802610Y-117904368D01*
X253804235Y-117937449D01*
X253804235Y-118612449D01*
X253802610Y-118645530D01*
X253797750Y-118678292D01*
X253789702Y-118710420D01*
X253778544Y-118741605D01*
X253764383Y-118771545D01*
X253747356Y-118799954D01*
X253727626Y-118826557D01*
X253705384Y-118851098D01*
X253680843Y-118873340D01*
X253654240Y-118893070D01*
X253625831Y-118910097D01*
X253595891Y-118924258D01*
X253564706Y-118935416D01*
X253532578Y-118943464D01*
X253499816Y-118948324D01*
X253466735Y-118949949D01*
X252691735Y-118949949D01*
X252658654Y-118948324D01*
X252625892Y-118943464D01*
X252593764Y-118935416D01*
X252562579Y-118924258D01*
X252532639Y-118910097D01*
X252504230Y-118893070D01*
X252477627Y-118873340D01*
X252453086Y-118851098D01*
X252430844Y-118826557D01*
X252411114Y-118799954D01*
X252394087Y-118771545D01*
X252379926Y-118741605D01*
X252368768Y-118710420D01*
X252360720Y-118678292D01*
X252355860Y-118645530D01*
X252354235Y-118612449D01*
X252354235Y-117937449D01*
X252355860Y-117904368D01*
X252360720Y-117871606D01*
X252368768Y-117839478D01*
X252379926Y-117808293D01*
X252394087Y-117778353D01*
X252411114Y-117749944D01*
X252430844Y-117723341D01*
X252453086Y-117698800D01*
X252477627Y-117676558D01*
X252504230Y-117656828D01*
X252532639Y-117639801D01*
X252562579Y-117625640D01*
X252593764Y-117614482D01*
X252625892Y-117606434D01*
X252658654Y-117601574D01*
X252691735Y-117599949D01*
X253466735Y-117599949D01*
X253499816Y-117601574D01*
X253499816Y-117601574D01*
G37*
D16*
X253079235Y-118274949D03*
D15*
G36*
X255249816Y-117601574D02*
X255282578Y-117606434D01*
X255314706Y-117614482D01*
X255345891Y-117625640D01*
X255375831Y-117639801D01*
X255404240Y-117656828D01*
X255430843Y-117676558D01*
X255455384Y-117698800D01*
X255477626Y-117723341D01*
X255497356Y-117749944D01*
X255514383Y-117778353D01*
X255528544Y-117808293D01*
X255539702Y-117839478D01*
X255547750Y-117871606D01*
X255552610Y-117904368D01*
X255554235Y-117937449D01*
X255554235Y-118612449D01*
X255552610Y-118645530D01*
X255547750Y-118678292D01*
X255539702Y-118710420D01*
X255528544Y-118741605D01*
X255514383Y-118771545D01*
X255497356Y-118799954D01*
X255477626Y-118826557D01*
X255455384Y-118851098D01*
X255430843Y-118873340D01*
X255404240Y-118893070D01*
X255375831Y-118910097D01*
X255345891Y-118924258D01*
X255314706Y-118935416D01*
X255282578Y-118943464D01*
X255249816Y-118948324D01*
X255216735Y-118949949D01*
X254441735Y-118949949D01*
X254408654Y-118948324D01*
X254375892Y-118943464D01*
X254343764Y-118935416D01*
X254312579Y-118924258D01*
X254282639Y-118910097D01*
X254254230Y-118893070D01*
X254227627Y-118873340D01*
X254203086Y-118851098D01*
X254180844Y-118826557D01*
X254161114Y-118799954D01*
X254144087Y-118771545D01*
X254129926Y-118741605D01*
X254118768Y-118710420D01*
X254110720Y-118678292D01*
X254105860Y-118645530D01*
X254104235Y-118612449D01*
X254104235Y-117937449D01*
X254105860Y-117904368D01*
X254110720Y-117871606D01*
X254118768Y-117839478D01*
X254129926Y-117808293D01*
X254144087Y-117778353D01*
X254161114Y-117749944D01*
X254180844Y-117723341D01*
X254203086Y-117698800D01*
X254227627Y-117676558D01*
X254254230Y-117656828D01*
X254282639Y-117639801D01*
X254312579Y-117625640D01*
X254343764Y-117614482D01*
X254375892Y-117606434D01*
X254408654Y-117601574D01*
X254441735Y-117599949D01*
X255216735Y-117599949D01*
X255249816Y-117601574D01*
X255249816Y-117601574D01*
G37*
D16*
X254829235Y-118274949D03*
G04 #@! TD*
D15*
G04 #@! TO.C,C4*
G36*
X266878047Y-144239141D02*
X266910809Y-144244001D01*
X266942937Y-144252049D01*
X266974122Y-144263207D01*
X267004062Y-144277368D01*
X267032471Y-144294395D01*
X267059074Y-144314125D01*
X267083615Y-144336367D01*
X267105857Y-144360908D01*
X267125587Y-144387511D01*
X267142614Y-144415920D01*
X267156775Y-144445860D01*
X267167933Y-144477045D01*
X267175981Y-144509173D01*
X267180841Y-144541935D01*
X267182466Y-144575016D01*
X267182466Y-145350016D01*
X267180841Y-145383097D01*
X267175981Y-145415859D01*
X267167933Y-145447987D01*
X267156775Y-145479172D01*
X267142614Y-145509112D01*
X267125587Y-145537521D01*
X267105857Y-145564124D01*
X267083615Y-145588665D01*
X267059074Y-145610907D01*
X267032471Y-145630637D01*
X267004062Y-145647664D01*
X266974122Y-145661825D01*
X266942937Y-145672983D01*
X266910809Y-145681031D01*
X266878047Y-145685891D01*
X266844966Y-145687516D01*
X266169966Y-145687516D01*
X266136885Y-145685891D01*
X266104123Y-145681031D01*
X266071995Y-145672983D01*
X266040810Y-145661825D01*
X266010870Y-145647664D01*
X265982461Y-145630637D01*
X265955858Y-145610907D01*
X265931317Y-145588665D01*
X265909075Y-145564124D01*
X265889345Y-145537521D01*
X265872318Y-145509112D01*
X265858157Y-145479172D01*
X265846999Y-145447987D01*
X265838951Y-145415859D01*
X265834091Y-145383097D01*
X265832466Y-145350016D01*
X265832466Y-144575016D01*
X265834091Y-144541935D01*
X265838951Y-144509173D01*
X265846999Y-144477045D01*
X265858157Y-144445860D01*
X265872318Y-144415920D01*
X265889345Y-144387511D01*
X265909075Y-144360908D01*
X265931317Y-144336367D01*
X265955858Y-144314125D01*
X265982461Y-144294395D01*
X266010870Y-144277368D01*
X266040810Y-144263207D01*
X266071995Y-144252049D01*
X266104123Y-144244001D01*
X266136885Y-144239141D01*
X266169966Y-144237516D01*
X266844966Y-144237516D01*
X266878047Y-144239141D01*
X266878047Y-144239141D01*
G37*
D16*
X266507466Y-144962516D03*
D15*
G36*
X266878047Y-145989141D02*
X266910809Y-145994001D01*
X266942937Y-146002049D01*
X266974122Y-146013207D01*
X267004062Y-146027368D01*
X267032471Y-146044395D01*
X267059074Y-146064125D01*
X267083615Y-146086367D01*
X267105857Y-146110908D01*
X267125587Y-146137511D01*
X267142614Y-146165920D01*
X267156775Y-146195860D01*
X267167933Y-146227045D01*
X267175981Y-146259173D01*
X267180841Y-146291935D01*
X267182466Y-146325016D01*
X267182466Y-147100016D01*
X267180841Y-147133097D01*
X267175981Y-147165859D01*
X267167933Y-147197987D01*
X267156775Y-147229172D01*
X267142614Y-147259112D01*
X267125587Y-147287521D01*
X267105857Y-147314124D01*
X267083615Y-147338665D01*
X267059074Y-147360907D01*
X267032471Y-147380637D01*
X267004062Y-147397664D01*
X266974122Y-147411825D01*
X266942937Y-147422983D01*
X266910809Y-147431031D01*
X266878047Y-147435891D01*
X266844966Y-147437516D01*
X266169966Y-147437516D01*
X266136885Y-147435891D01*
X266104123Y-147431031D01*
X266071995Y-147422983D01*
X266040810Y-147411825D01*
X266010870Y-147397664D01*
X265982461Y-147380637D01*
X265955858Y-147360907D01*
X265931317Y-147338665D01*
X265909075Y-147314124D01*
X265889345Y-147287521D01*
X265872318Y-147259112D01*
X265858157Y-147229172D01*
X265846999Y-147197987D01*
X265838951Y-147165859D01*
X265834091Y-147133097D01*
X265832466Y-147100016D01*
X265832466Y-146325016D01*
X265834091Y-146291935D01*
X265838951Y-146259173D01*
X265846999Y-146227045D01*
X265858157Y-146195860D01*
X265872318Y-146165920D01*
X265889345Y-146137511D01*
X265909075Y-146110908D01*
X265931317Y-146086367D01*
X265955858Y-146064125D01*
X265982461Y-146044395D01*
X266010870Y-146027368D01*
X266040810Y-146013207D01*
X266071995Y-146002049D01*
X266104123Y-145994001D01*
X266136885Y-145989141D01*
X266169966Y-145987516D01*
X266844966Y-145987516D01*
X266878047Y-145989141D01*
X266878047Y-145989141D01*
G37*
D16*
X266507466Y-146712516D03*
G04 #@! TD*
D15*
G04 #@! TO.C,C9*
G36*
X268948306Y-94151572D02*
X268981016Y-94156424D01*
X269013092Y-94164458D01*
X269044226Y-94175598D01*
X269074119Y-94189736D01*
X269102482Y-94206736D01*
X269129042Y-94226434D01*
X269153543Y-94248641D01*
X269175750Y-94273142D01*
X269195448Y-94299702D01*
X269212448Y-94328065D01*
X269226586Y-94357958D01*
X269237726Y-94389092D01*
X269245760Y-94421168D01*
X269250612Y-94453878D01*
X269252235Y-94486905D01*
X269252235Y-95362993D01*
X269250612Y-95396020D01*
X269245760Y-95428730D01*
X269237726Y-95460806D01*
X269226586Y-95491940D01*
X269212448Y-95521833D01*
X269195448Y-95550196D01*
X269175750Y-95576756D01*
X269153543Y-95601257D01*
X269129042Y-95623464D01*
X269102482Y-95643162D01*
X269074119Y-95660162D01*
X269044226Y-95674300D01*
X269013092Y-95685440D01*
X268981016Y-95693474D01*
X268948306Y-95698326D01*
X268915279Y-95699949D01*
X267789191Y-95699949D01*
X267756164Y-95698326D01*
X267723454Y-95693474D01*
X267691378Y-95685440D01*
X267660244Y-95674300D01*
X267630351Y-95660162D01*
X267601988Y-95643162D01*
X267575428Y-95623464D01*
X267550927Y-95601257D01*
X267528720Y-95576756D01*
X267509022Y-95550196D01*
X267492022Y-95521833D01*
X267477884Y-95491940D01*
X267466744Y-95460806D01*
X267458710Y-95428730D01*
X267453858Y-95396020D01*
X267452235Y-95362993D01*
X267452235Y-94486905D01*
X267453858Y-94453878D01*
X267458710Y-94421168D01*
X267466744Y-94389092D01*
X267477884Y-94357958D01*
X267492022Y-94328065D01*
X267509022Y-94299702D01*
X267528720Y-94273142D01*
X267550927Y-94248641D01*
X267575428Y-94226434D01*
X267601988Y-94206736D01*
X267630351Y-94189736D01*
X267660244Y-94175598D01*
X267691378Y-94164458D01*
X267723454Y-94156424D01*
X267756164Y-94151572D01*
X267789191Y-94149949D01*
X268915279Y-94149949D01*
X268948306Y-94151572D01*
X268948306Y-94151572D01*
G37*
D17*
X268352235Y-94924949D03*
D15*
G36*
X268948306Y-92101572D02*
X268981016Y-92106424D01*
X269013092Y-92114458D01*
X269044226Y-92125598D01*
X269074119Y-92139736D01*
X269102482Y-92156736D01*
X269129042Y-92176434D01*
X269153543Y-92198641D01*
X269175750Y-92223142D01*
X269195448Y-92249702D01*
X269212448Y-92278065D01*
X269226586Y-92307958D01*
X269237726Y-92339092D01*
X269245760Y-92371168D01*
X269250612Y-92403878D01*
X269252235Y-92436905D01*
X269252235Y-93312993D01*
X269250612Y-93346020D01*
X269245760Y-93378730D01*
X269237726Y-93410806D01*
X269226586Y-93441940D01*
X269212448Y-93471833D01*
X269195448Y-93500196D01*
X269175750Y-93526756D01*
X269153543Y-93551257D01*
X269129042Y-93573464D01*
X269102482Y-93593162D01*
X269074119Y-93610162D01*
X269044226Y-93624300D01*
X269013092Y-93635440D01*
X268981016Y-93643474D01*
X268948306Y-93648326D01*
X268915279Y-93649949D01*
X267789191Y-93649949D01*
X267756164Y-93648326D01*
X267723454Y-93643474D01*
X267691378Y-93635440D01*
X267660244Y-93624300D01*
X267630351Y-93610162D01*
X267601988Y-93593162D01*
X267575428Y-93573464D01*
X267550927Y-93551257D01*
X267528720Y-93526756D01*
X267509022Y-93500196D01*
X267492022Y-93471833D01*
X267477884Y-93441940D01*
X267466744Y-93410806D01*
X267458710Y-93378730D01*
X267453858Y-93346020D01*
X267452235Y-93312993D01*
X267452235Y-92436905D01*
X267453858Y-92403878D01*
X267458710Y-92371168D01*
X267466744Y-92339092D01*
X267477884Y-92307958D01*
X267492022Y-92278065D01*
X267509022Y-92249702D01*
X267528720Y-92223142D01*
X267550927Y-92198641D01*
X267575428Y-92176434D01*
X267601988Y-92156736D01*
X267630351Y-92139736D01*
X267660244Y-92125598D01*
X267691378Y-92114458D01*
X267723454Y-92106424D01*
X267756164Y-92101572D01*
X267789191Y-92099949D01*
X268915279Y-92099949D01*
X268948306Y-92101572D01*
X268948306Y-92101572D01*
G37*
D17*
X268352235Y-92874949D03*
G04 #@! TD*
D18*
G04 #@! TO.C,D1*
X269700235Y-110794949D03*
X271400235Y-110794949D03*
X273100235Y-110794949D03*
X273100235Y-115594949D03*
X271400235Y-115594949D03*
X269700235Y-115594949D03*
G04 #@! TD*
D19*
G04 #@! TO.C,J1*
X231780235Y-99694949D03*
X231780235Y-98014949D03*
D20*
X231780235Y-101764949D03*
X231780235Y-95944949D03*
D21*
X234080235Y-101317449D03*
X234080235Y-96392449D03*
D22*
X234440235Y-100154949D03*
X234440235Y-99504949D03*
X234440235Y-98854949D03*
X234440235Y-98204949D03*
X234440235Y-97554949D03*
G04 #@! TD*
D11*
G04 #@! TO.C,J3*
X239650235Y-109384949D03*
X239650235Y-111924949D03*
X239650235Y-114464949D03*
D10*
X239650235Y-117004949D03*
G04 #@! TD*
D23*
G04 #@! TO.C,Q1*
X271908235Y-100264949D03*
X272858235Y-103264949D03*
X270958235Y-103264949D03*
G04 #@! TD*
D15*
G04 #@! TO.C,R3*
G36*
X273395306Y-104676572D02*
X273428016Y-104681424D01*
X273460092Y-104689458D01*
X273491226Y-104700598D01*
X273521119Y-104714736D01*
X273549482Y-104731736D01*
X273576042Y-104751434D01*
X273600543Y-104773641D01*
X273622750Y-104798142D01*
X273642448Y-104824702D01*
X273659448Y-104853065D01*
X273673586Y-104882958D01*
X273684726Y-104914092D01*
X273692760Y-104946168D01*
X273697612Y-104978878D01*
X273699235Y-105011905D01*
X273699235Y-106137993D01*
X273697612Y-106171020D01*
X273692760Y-106203730D01*
X273684726Y-106235806D01*
X273673586Y-106266940D01*
X273659448Y-106296833D01*
X273642448Y-106325196D01*
X273622750Y-106351756D01*
X273600543Y-106376257D01*
X273576042Y-106398464D01*
X273549482Y-106418162D01*
X273521119Y-106435162D01*
X273491226Y-106449300D01*
X273460092Y-106460440D01*
X273428016Y-106468474D01*
X273395306Y-106473326D01*
X273362279Y-106474949D01*
X272486191Y-106474949D01*
X272453164Y-106473326D01*
X272420454Y-106468474D01*
X272388378Y-106460440D01*
X272357244Y-106449300D01*
X272327351Y-106435162D01*
X272298988Y-106418162D01*
X272272428Y-106398464D01*
X272247927Y-106376257D01*
X272225720Y-106351756D01*
X272206022Y-106325196D01*
X272189022Y-106296833D01*
X272174884Y-106266940D01*
X272163744Y-106235806D01*
X272155710Y-106203730D01*
X272150858Y-106171020D01*
X272149235Y-106137993D01*
X272149235Y-105011905D01*
X272150858Y-104978878D01*
X272155710Y-104946168D01*
X272163744Y-104914092D01*
X272174884Y-104882958D01*
X272189022Y-104853065D01*
X272206022Y-104824702D01*
X272225720Y-104798142D01*
X272247927Y-104773641D01*
X272272428Y-104751434D01*
X272298988Y-104731736D01*
X272327351Y-104714736D01*
X272357244Y-104700598D01*
X272388378Y-104689458D01*
X272420454Y-104681424D01*
X272453164Y-104676572D01*
X272486191Y-104674949D01*
X273362279Y-104674949D01*
X273395306Y-104676572D01*
X273395306Y-104676572D01*
G37*
D17*
X272924235Y-105574949D03*
D15*
G36*
X271345306Y-104676572D02*
X271378016Y-104681424D01*
X271410092Y-104689458D01*
X271441226Y-104700598D01*
X271471119Y-104714736D01*
X271499482Y-104731736D01*
X271526042Y-104751434D01*
X271550543Y-104773641D01*
X271572750Y-104798142D01*
X271592448Y-104824702D01*
X271609448Y-104853065D01*
X271623586Y-104882958D01*
X271634726Y-104914092D01*
X271642760Y-104946168D01*
X271647612Y-104978878D01*
X271649235Y-105011905D01*
X271649235Y-106137993D01*
X271647612Y-106171020D01*
X271642760Y-106203730D01*
X271634726Y-106235806D01*
X271623586Y-106266940D01*
X271609448Y-106296833D01*
X271592448Y-106325196D01*
X271572750Y-106351756D01*
X271550543Y-106376257D01*
X271526042Y-106398464D01*
X271499482Y-106418162D01*
X271471119Y-106435162D01*
X271441226Y-106449300D01*
X271410092Y-106460440D01*
X271378016Y-106468474D01*
X271345306Y-106473326D01*
X271312279Y-106474949D01*
X270436191Y-106474949D01*
X270403164Y-106473326D01*
X270370454Y-106468474D01*
X270338378Y-106460440D01*
X270307244Y-106449300D01*
X270277351Y-106435162D01*
X270248988Y-106418162D01*
X270222428Y-106398464D01*
X270197927Y-106376257D01*
X270175720Y-106351756D01*
X270156022Y-106325196D01*
X270139022Y-106296833D01*
X270124884Y-106266940D01*
X270113744Y-106235806D01*
X270105710Y-106203730D01*
X270100858Y-106171020D01*
X270099235Y-106137993D01*
X270099235Y-105011905D01*
X270100858Y-104978878D01*
X270105710Y-104946168D01*
X270113744Y-104914092D01*
X270124884Y-104882958D01*
X270139022Y-104853065D01*
X270156022Y-104824702D01*
X270175720Y-104798142D01*
X270197927Y-104773641D01*
X270222428Y-104751434D01*
X270248988Y-104731736D01*
X270277351Y-104714736D01*
X270307244Y-104700598D01*
X270338378Y-104689458D01*
X270370454Y-104681424D01*
X270403164Y-104676572D01*
X270436191Y-104674949D01*
X271312279Y-104674949D01*
X271345306Y-104676572D01*
X271345306Y-104676572D01*
G37*
D17*
X270874235Y-105574949D03*
G04 #@! TD*
D15*
G04 #@! TO.C,R4*
G36*
X269710306Y-119796572D02*
X269743016Y-119801424D01*
X269775092Y-119809458D01*
X269806226Y-119820598D01*
X269836119Y-119834736D01*
X269864482Y-119851736D01*
X269891042Y-119871434D01*
X269915543Y-119893641D01*
X269937750Y-119918142D01*
X269957448Y-119944702D01*
X269974448Y-119973065D01*
X269988586Y-120002958D01*
X269999726Y-120034092D01*
X270007760Y-120066168D01*
X270012612Y-120098878D01*
X270014235Y-120131905D01*
X270014235Y-121007993D01*
X270012612Y-121041020D01*
X270007760Y-121073730D01*
X269999726Y-121105806D01*
X269988586Y-121136940D01*
X269974448Y-121166833D01*
X269957448Y-121195196D01*
X269937750Y-121221756D01*
X269915543Y-121246257D01*
X269891042Y-121268464D01*
X269864482Y-121288162D01*
X269836119Y-121305162D01*
X269806226Y-121319300D01*
X269775092Y-121330440D01*
X269743016Y-121338474D01*
X269710306Y-121343326D01*
X269677279Y-121344949D01*
X268551191Y-121344949D01*
X268518164Y-121343326D01*
X268485454Y-121338474D01*
X268453378Y-121330440D01*
X268422244Y-121319300D01*
X268392351Y-121305162D01*
X268363988Y-121288162D01*
X268337428Y-121268464D01*
X268312927Y-121246257D01*
X268290720Y-121221756D01*
X268271022Y-121195196D01*
X268254022Y-121166833D01*
X268239884Y-121136940D01*
X268228744Y-121105806D01*
X268220710Y-121073730D01*
X268215858Y-121041020D01*
X268214235Y-121007993D01*
X268214235Y-120131905D01*
X268215858Y-120098878D01*
X268220710Y-120066168D01*
X268228744Y-120034092D01*
X268239884Y-120002958D01*
X268254022Y-119973065D01*
X268271022Y-119944702D01*
X268290720Y-119918142D01*
X268312927Y-119893641D01*
X268337428Y-119871434D01*
X268363988Y-119851736D01*
X268392351Y-119834736D01*
X268422244Y-119820598D01*
X268453378Y-119809458D01*
X268485454Y-119801424D01*
X268518164Y-119796572D01*
X268551191Y-119794949D01*
X269677279Y-119794949D01*
X269710306Y-119796572D01*
X269710306Y-119796572D01*
G37*
D17*
X269114235Y-120569949D03*
D15*
G36*
X269710306Y-117746572D02*
X269743016Y-117751424D01*
X269775092Y-117759458D01*
X269806226Y-117770598D01*
X269836119Y-117784736D01*
X269864482Y-117801736D01*
X269891042Y-117821434D01*
X269915543Y-117843641D01*
X269937750Y-117868142D01*
X269957448Y-117894702D01*
X269974448Y-117923065D01*
X269988586Y-117952958D01*
X269999726Y-117984092D01*
X270007760Y-118016168D01*
X270012612Y-118048878D01*
X270014235Y-118081905D01*
X270014235Y-118957993D01*
X270012612Y-118991020D01*
X270007760Y-119023730D01*
X269999726Y-119055806D01*
X269988586Y-119086940D01*
X269974448Y-119116833D01*
X269957448Y-119145196D01*
X269937750Y-119171756D01*
X269915543Y-119196257D01*
X269891042Y-119218464D01*
X269864482Y-119238162D01*
X269836119Y-119255162D01*
X269806226Y-119269300D01*
X269775092Y-119280440D01*
X269743016Y-119288474D01*
X269710306Y-119293326D01*
X269677279Y-119294949D01*
X268551191Y-119294949D01*
X268518164Y-119293326D01*
X268485454Y-119288474D01*
X268453378Y-119280440D01*
X268422244Y-119269300D01*
X268392351Y-119255162D01*
X268363988Y-119238162D01*
X268337428Y-119218464D01*
X268312927Y-119196257D01*
X268290720Y-119171756D01*
X268271022Y-119145196D01*
X268254022Y-119116833D01*
X268239884Y-119086940D01*
X268228744Y-119055806D01*
X268220710Y-119023730D01*
X268215858Y-118991020D01*
X268214235Y-118957993D01*
X268214235Y-118081905D01*
X268215858Y-118048878D01*
X268220710Y-118016168D01*
X268228744Y-117984092D01*
X268239884Y-117952958D01*
X268254022Y-117923065D01*
X268271022Y-117894702D01*
X268290720Y-117868142D01*
X268312927Y-117843641D01*
X268337428Y-117821434D01*
X268363988Y-117801736D01*
X268392351Y-117784736D01*
X268422244Y-117770598D01*
X268453378Y-117759458D01*
X268485454Y-117751424D01*
X268518164Y-117746572D01*
X268551191Y-117744949D01*
X269677279Y-117744949D01*
X269710306Y-117746572D01*
X269710306Y-117746572D01*
G37*
D17*
X269114235Y-118519949D03*
G04 #@! TD*
D15*
G04 #@! TO.C,R5*
G36*
X271742306Y-117746572D02*
X271775016Y-117751424D01*
X271807092Y-117759458D01*
X271838226Y-117770598D01*
X271868119Y-117784736D01*
X271896482Y-117801736D01*
X271923042Y-117821434D01*
X271947543Y-117843641D01*
X271969750Y-117868142D01*
X271989448Y-117894702D01*
X272006448Y-117923065D01*
X272020586Y-117952958D01*
X272031726Y-117984092D01*
X272039760Y-118016168D01*
X272044612Y-118048878D01*
X272046235Y-118081905D01*
X272046235Y-118957993D01*
X272044612Y-118991020D01*
X272039760Y-119023730D01*
X272031726Y-119055806D01*
X272020586Y-119086940D01*
X272006448Y-119116833D01*
X271989448Y-119145196D01*
X271969750Y-119171756D01*
X271947543Y-119196257D01*
X271923042Y-119218464D01*
X271896482Y-119238162D01*
X271868119Y-119255162D01*
X271838226Y-119269300D01*
X271807092Y-119280440D01*
X271775016Y-119288474D01*
X271742306Y-119293326D01*
X271709279Y-119294949D01*
X270583191Y-119294949D01*
X270550164Y-119293326D01*
X270517454Y-119288474D01*
X270485378Y-119280440D01*
X270454244Y-119269300D01*
X270424351Y-119255162D01*
X270395988Y-119238162D01*
X270369428Y-119218464D01*
X270344927Y-119196257D01*
X270322720Y-119171756D01*
X270303022Y-119145196D01*
X270286022Y-119116833D01*
X270271884Y-119086940D01*
X270260744Y-119055806D01*
X270252710Y-119023730D01*
X270247858Y-118991020D01*
X270246235Y-118957993D01*
X270246235Y-118081905D01*
X270247858Y-118048878D01*
X270252710Y-118016168D01*
X270260744Y-117984092D01*
X270271884Y-117952958D01*
X270286022Y-117923065D01*
X270303022Y-117894702D01*
X270322720Y-117868142D01*
X270344927Y-117843641D01*
X270369428Y-117821434D01*
X270395988Y-117801736D01*
X270424351Y-117784736D01*
X270454244Y-117770598D01*
X270485378Y-117759458D01*
X270517454Y-117751424D01*
X270550164Y-117746572D01*
X270583191Y-117744949D01*
X271709279Y-117744949D01*
X271742306Y-117746572D01*
X271742306Y-117746572D01*
G37*
D17*
X271146235Y-118519949D03*
D15*
G36*
X271742306Y-119796572D02*
X271775016Y-119801424D01*
X271807092Y-119809458D01*
X271838226Y-119820598D01*
X271868119Y-119834736D01*
X271896482Y-119851736D01*
X271923042Y-119871434D01*
X271947543Y-119893641D01*
X271969750Y-119918142D01*
X271989448Y-119944702D01*
X272006448Y-119973065D01*
X272020586Y-120002958D01*
X272031726Y-120034092D01*
X272039760Y-120066168D01*
X272044612Y-120098878D01*
X272046235Y-120131905D01*
X272046235Y-121007993D01*
X272044612Y-121041020D01*
X272039760Y-121073730D01*
X272031726Y-121105806D01*
X272020586Y-121136940D01*
X272006448Y-121166833D01*
X271989448Y-121195196D01*
X271969750Y-121221756D01*
X271947543Y-121246257D01*
X271923042Y-121268464D01*
X271896482Y-121288162D01*
X271868119Y-121305162D01*
X271838226Y-121319300D01*
X271807092Y-121330440D01*
X271775016Y-121338474D01*
X271742306Y-121343326D01*
X271709279Y-121344949D01*
X270583191Y-121344949D01*
X270550164Y-121343326D01*
X270517454Y-121338474D01*
X270485378Y-121330440D01*
X270454244Y-121319300D01*
X270424351Y-121305162D01*
X270395988Y-121288162D01*
X270369428Y-121268464D01*
X270344927Y-121246257D01*
X270322720Y-121221756D01*
X270303022Y-121195196D01*
X270286022Y-121166833D01*
X270271884Y-121136940D01*
X270260744Y-121105806D01*
X270252710Y-121073730D01*
X270247858Y-121041020D01*
X270246235Y-121007993D01*
X270246235Y-120131905D01*
X270247858Y-120098878D01*
X270252710Y-120066168D01*
X270260744Y-120034092D01*
X270271884Y-120002958D01*
X270286022Y-119973065D01*
X270303022Y-119944702D01*
X270322720Y-119918142D01*
X270344927Y-119893641D01*
X270369428Y-119871434D01*
X270395988Y-119851736D01*
X270424351Y-119834736D01*
X270454244Y-119820598D01*
X270485378Y-119809458D01*
X270517454Y-119801424D01*
X270550164Y-119796572D01*
X270583191Y-119794949D01*
X271709279Y-119794949D01*
X271742306Y-119796572D01*
X271742306Y-119796572D01*
G37*
D17*
X271146235Y-120569949D03*
G04 #@! TD*
D15*
G04 #@! TO.C,R6*
G36*
X273774306Y-119796572D02*
X273807016Y-119801424D01*
X273839092Y-119809458D01*
X273870226Y-119820598D01*
X273900119Y-119834736D01*
X273928482Y-119851736D01*
X273955042Y-119871434D01*
X273979543Y-119893641D01*
X274001750Y-119918142D01*
X274021448Y-119944702D01*
X274038448Y-119973065D01*
X274052586Y-120002958D01*
X274063726Y-120034092D01*
X274071760Y-120066168D01*
X274076612Y-120098878D01*
X274078235Y-120131905D01*
X274078235Y-121007993D01*
X274076612Y-121041020D01*
X274071760Y-121073730D01*
X274063726Y-121105806D01*
X274052586Y-121136940D01*
X274038448Y-121166833D01*
X274021448Y-121195196D01*
X274001750Y-121221756D01*
X273979543Y-121246257D01*
X273955042Y-121268464D01*
X273928482Y-121288162D01*
X273900119Y-121305162D01*
X273870226Y-121319300D01*
X273839092Y-121330440D01*
X273807016Y-121338474D01*
X273774306Y-121343326D01*
X273741279Y-121344949D01*
X272615191Y-121344949D01*
X272582164Y-121343326D01*
X272549454Y-121338474D01*
X272517378Y-121330440D01*
X272486244Y-121319300D01*
X272456351Y-121305162D01*
X272427988Y-121288162D01*
X272401428Y-121268464D01*
X272376927Y-121246257D01*
X272354720Y-121221756D01*
X272335022Y-121195196D01*
X272318022Y-121166833D01*
X272303884Y-121136940D01*
X272292744Y-121105806D01*
X272284710Y-121073730D01*
X272279858Y-121041020D01*
X272278235Y-121007993D01*
X272278235Y-120131905D01*
X272279858Y-120098878D01*
X272284710Y-120066168D01*
X272292744Y-120034092D01*
X272303884Y-120002958D01*
X272318022Y-119973065D01*
X272335022Y-119944702D01*
X272354720Y-119918142D01*
X272376927Y-119893641D01*
X272401428Y-119871434D01*
X272427988Y-119851736D01*
X272456351Y-119834736D01*
X272486244Y-119820598D01*
X272517378Y-119809458D01*
X272549454Y-119801424D01*
X272582164Y-119796572D01*
X272615191Y-119794949D01*
X273741279Y-119794949D01*
X273774306Y-119796572D01*
X273774306Y-119796572D01*
G37*
D17*
X273178235Y-120569949D03*
D15*
G36*
X273774306Y-117746572D02*
X273807016Y-117751424D01*
X273839092Y-117759458D01*
X273870226Y-117770598D01*
X273900119Y-117784736D01*
X273928482Y-117801736D01*
X273955042Y-117821434D01*
X273979543Y-117843641D01*
X274001750Y-117868142D01*
X274021448Y-117894702D01*
X274038448Y-117923065D01*
X274052586Y-117952958D01*
X274063726Y-117984092D01*
X274071760Y-118016168D01*
X274076612Y-118048878D01*
X274078235Y-118081905D01*
X274078235Y-118957993D01*
X274076612Y-118991020D01*
X274071760Y-119023730D01*
X274063726Y-119055806D01*
X274052586Y-119086940D01*
X274038448Y-119116833D01*
X274021448Y-119145196D01*
X274001750Y-119171756D01*
X273979543Y-119196257D01*
X273955042Y-119218464D01*
X273928482Y-119238162D01*
X273900119Y-119255162D01*
X273870226Y-119269300D01*
X273839092Y-119280440D01*
X273807016Y-119288474D01*
X273774306Y-119293326D01*
X273741279Y-119294949D01*
X272615191Y-119294949D01*
X272582164Y-119293326D01*
X272549454Y-119288474D01*
X272517378Y-119280440D01*
X272486244Y-119269300D01*
X272456351Y-119255162D01*
X272427988Y-119238162D01*
X272401428Y-119218464D01*
X272376927Y-119196257D01*
X272354720Y-119171756D01*
X272335022Y-119145196D01*
X272318022Y-119116833D01*
X272303884Y-119086940D01*
X272292744Y-119055806D01*
X272284710Y-119023730D01*
X272279858Y-118991020D01*
X272278235Y-118957993D01*
X272278235Y-118081905D01*
X272279858Y-118048878D01*
X272284710Y-118016168D01*
X272292744Y-117984092D01*
X272303884Y-117952958D01*
X272318022Y-117923065D01*
X272335022Y-117894702D01*
X272354720Y-117868142D01*
X272376927Y-117843641D01*
X272401428Y-117821434D01*
X272427988Y-117801736D01*
X272456351Y-117784736D01*
X272486244Y-117770598D01*
X272517378Y-117759458D01*
X272549454Y-117751424D01*
X272582164Y-117746572D01*
X272615191Y-117744949D01*
X273741279Y-117744949D01*
X273774306Y-117746572D01*
X273774306Y-117746572D01*
G37*
D17*
X273178235Y-118519949D03*
G04 #@! TD*
D15*
G04 #@! TO.C,R7*
G36*
X237426306Y-102196572D02*
X237459016Y-102201424D01*
X237491092Y-102209458D01*
X237522226Y-102220598D01*
X237552119Y-102234736D01*
X237580482Y-102251736D01*
X237607042Y-102271434D01*
X237631543Y-102293641D01*
X237653750Y-102318142D01*
X237673448Y-102344702D01*
X237690448Y-102373065D01*
X237704586Y-102402958D01*
X237715726Y-102434092D01*
X237723760Y-102466168D01*
X237728612Y-102498878D01*
X237730235Y-102531905D01*
X237730235Y-103407993D01*
X237728612Y-103441020D01*
X237723760Y-103473730D01*
X237715726Y-103505806D01*
X237704586Y-103536940D01*
X237690448Y-103566833D01*
X237673448Y-103595196D01*
X237653750Y-103621756D01*
X237631543Y-103646257D01*
X237607042Y-103668464D01*
X237580482Y-103688162D01*
X237552119Y-103705162D01*
X237522226Y-103719300D01*
X237491092Y-103730440D01*
X237459016Y-103738474D01*
X237426306Y-103743326D01*
X237393279Y-103744949D01*
X236267191Y-103744949D01*
X236234164Y-103743326D01*
X236201454Y-103738474D01*
X236169378Y-103730440D01*
X236138244Y-103719300D01*
X236108351Y-103705162D01*
X236079988Y-103688162D01*
X236053428Y-103668464D01*
X236028927Y-103646257D01*
X236006720Y-103621756D01*
X235987022Y-103595196D01*
X235970022Y-103566833D01*
X235955884Y-103536940D01*
X235944744Y-103505806D01*
X235936710Y-103473730D01*
X235931858Y-103441020D01*
X235930235Y-103407993D01*
X235930235Y-102531905D01*
X235931858Y-102498878D01*
X235936710Y-102466168D01*
X235944744Y-102434092D01*
X235955884Y-102402958D01*
X235970022Y-102373065D01*
X235987022Y-102344702D01*
X236006720Y-102318142D01*
X236028927Y-102293641D01*
X236053428Y-102271434D01*
X236079988Y-102251736D01*
X236108351Y-102234736D01*
X236138244Y-102220598D01*
X236169378Y-102209458D01*
X236201454Y-102201424D01*
X236234164Y-102196572D01*
X236267191Y-102194949D01*
X237393279Y-102194949D01*
X237426306Y-102196572D01*
X237426306Y-102196572D01*
G37*
D17*
X236830235Y-102969949D03*
D15*
G36*
X237426306Y-100146572D02*
X237459016Y-100151424D01*
X237491092Y-100159458D01*
X237522226Y-100170598D01*
X237552119Y-100184736D01*
X237580482Y-100201736D01*
X237607042Y-100221434D01*
X237631543Y-100243641D01*
X237653750Y-100268142D01*
X237673448Y-100294702D01*
X237690448Y-100323065D01*
X237704586Y-100352958D01*
X237715726Y-100384092D01*
X237723760Y-100416168D01*
X237728612Y-100448878D01*
X237730235Y-100481905D01*
X237730235Y-101357993D01*
X237728612Y-101391020D01*
X237723760Y-101423730D01*
X237715726Y-101455806D01*
X237704586Y-101486940D01*
X237690448Y-101516833D01*
X237673448Y-101545196D01*
X237653750Y-101571756D01*
X237631543Y-101596257D01*
X237607042Y-101618464D01*
X237580482Y-101638162D01*
X237552119Y-101655162D01*
X237522226Y-101669300D01*
X237491092Y-101680440D01*
X237459016Y-101688474D01*
X237426306Y-101693326D01*
X237393279Y-101694949D01*
X236267191Y-101694949D01*
X236234164Y-101693326D01*
X236201454Y-101688474D01*
X236169378Y-101680440D01*
X236138244Y-101669300D01*
X236108351Y-101655162D01*
X236079988Y-101638162D01*
X236053428Y-101618464D01*
X236028927Y-101596257D01*
X236006720Y-101571756D01*
X235987022Y-101545196D01*
X235970022Y-101516833D01*
X235955884Y-101486940D01*
X235944744Y-101455806D01*
X235936710Y-101423730D01*
X235931858Y-101391020D01*
X235930235Y-101357993D01*
X235930235Y-100481905D01*
X235931858Y-100448878D01*
X235936710Y-100416168D01*
X235944744Y-100384092D01*
X235955884Y-100352958D01*
X235970022Y-100323065D01*
X235987022Y-100294702D01*
X236006720Y-100268142D01*
X236028927Y-100243641D01*
X236053428Y-100221434D01*
X236079988Y-100201736D01*
X236108351Y-100184736D01*
X236138244Y-100170598D01*
X236169378Y-100159458D01*
X236201454Y-100151424D01*
X236234164Y-100146572D01*
X236267191Y-100144949D01*
X237393279Y-100144949D01*
X237426306Y-100146572D01*
X237426306Y-100146572D01*
G37*
D17*
X236830235Y-100919949D03*
G04 #@! TD*
D15*
G04 #@! TO.C,R8*
G36*
X237276306Y-96296572D02*
X237309016Y-96301424D01*
X237341092Y-96309458D01*
X237372226Y-96320598D01*
X237402119Y-96334736D01*
X237430482Y-96351736D01*
X237457042Y-96371434D01*
X237481543Y-96393641D01*
X237503750Y-96418142D01*
X237523448Y-96444702D01*
X237540448Y-96473065D01*
X237554586Y-96502958D01*
X237565726Y-96534092D01*
X237573760Y-96566168D01*
X237578612Y-96598878D01*
X237580235Y-96631905D01*
X237580235Y-97757993D01*
X237578612Y-97791020D01*
X237573760Y-97823730D01*
X237565726Y-97855806D01*
X237554586Y-97886940D01*
X237540448Y-97916833D01*
X237523448Y-97945196D01*
X237503750Y-97971756D01*
X237481543Y-97996257D01*
X237457042Y-98018464D01*
X237430482Y-98038162D01*
X237402119Y-98055162D01*
X237372226Y-98069300D01*
X237341092Y-98080440D01*
X237309016Y-98088474D01*
X237276306Y-98093326D01*
X237243279Y-98094949D01*
X236367191Y-98094949D01*
X236334164Y-98093326D01*
X236301454Y-98088474D01*
X236269378Y-98080440D01*
X236238244Y-98069300D01*
X236208351Y-98055162D01*
X236179988Y-98038162D01*
X236153428Y-98018464D01*
X236128927Y-97996257D01*
X236106720Y-97971756D01*
X236087022Y-97945196D01*
X236070022Y-97916833D01*
X236055884Y-97886940D01*
X236044744Y-97855806D01*
X236036710Y-97823730D01*
X236031858Y-97791020D01*
X236030235Y-97757993D01*
X236030235Y-96631905D01*
X236031858Y-96598878D01*
X236036710Y-96566168D01*
X236044744Y-96534092D01*
X236055884Y-96502958D01*
X236070022Y-96473065D01*
X236087022Y-96444702D01*
X236106720Y-96418142D01*
X236128927Y-96393641D01*
X236153428Y-96371434D01*
X236179988Y-96351736D01*
X236208351Y-96334736D01*
X236238244Y-96320598D01*
X236269378Y-96309458D01*
X236301454Y-96301424D01*
X236334164Y-96296572D01*
X236367191Y-96294949D01*
X237243279Y-96294949D01*
X237276306Y-96296572D01*
X237276306Y-96296572D01*
G37*
D17*
X236805235Y-97194949D03*
D15*
G36*
X239326306Y-96296572D02*
X239359016Y-96301424D01*
X239391092Y-96309458D01*
X239422226Y-96320598D01*
X239452119Y-96334736D01*
X239480482Y-96351736D01*
X239507042Y-96371434D01*
X239531543Y-96393641D01*
X239553750Y-96418142D01*
X239573448Y-96444702D01*
X239590448Y-96473065D01*
X239604586Y-96502958D01*
X239615726Y-96534092D01*
X239623760Y-96566168D01*
X239628612Y-96598878D01*
X239630235Y-96631905D01*
X239630235Y-97757993D01*
X239628612Y-97791020D01*
X239623760Y-97823730D01*
X239615726Y-97855806D01*
X239604586Y-97886940D01*
X239590448Y-97916833D01*
X239573448Y-97945196D01*
X239553750Y-97971756D01*
X239531543Y-97996257D01*
X239507042Y-98018464D01*
X239480482Y-98038162D01*
X239452119Y-98055162D01*
X239422226Y-98069300D01*
X239391092Y-98080440D01*
X239359016Y-98088474D01*
X239326306Y-98093326D01*
X239293279Y-98094949D01*
X238417191Y-98094949D01*
X238384164Y-98093326D01*
X238351454Y-98088474D01*
X238319378Y-98080440D01*
X238288244Y-98069300D01*
X238258351Y-98055162D01*
X238229988Y-98038162D01*
X238203428Y-98018464D01*
X238178927Y-97996257D01*
X238156720Y-97971756D01*
X238137022Y-97945196D01*
X238120022Y-97916833D01*
X238105884Y-97886940D01*
X238094744Y-97855806D01*
X238086710Y-97823730D01*
X238081858Y-97791020D01*
X238080235Y-97757993D01*
X238080235Y-96631905D01*
X238081858Y-96598878D01*
X238086710Y-96566168D01*
X238094744Y-96534092D01*
X238105884Y-96502958D01*
X238120022Y-96473065D01*
X238137022Y-96444702D01*
X238156720Y-96418142D01*
X238178927Y-96393641D01*
X238203428Y-96371434D01*
X238229988Y-96351736D01*
X238258351Y-96334736D01*
X238288244Y-96320598D01*
X238319378Y-96309458D01*
X238351454Y-96301424D01*
X238384164Y-96296572D01*
X238417191Y-96294949D01*
X239293279Y-96294949D01*
X239326306Y-96296572D01*
X239326306Y-96296572D01*
G37*
D17*
X238855235Y-97194949D03*
G04 #@! TD*
D15*
G04 #@! TO.C,R9*
G36*
X239326306Y-98296572D02*
X239359016Y-98301424D01*
X239391092Y-98309458D01*
X239422226Y-98320598D01*
X239452119Y-98334736D01*
X239480482Y-98351736D01*
X239507042Y-98371434D01*
X239531543Y-98393641D01*
X239553750Y-98418142D01*
X239573448Y-98444702D01*
X239590448Y-98473065D01*
X239604586Y-98502958D01*
X239615726Y-98534092D01*
X239623760Y-98566168D01*
X239628612Y-98598878D01*
X239630235Y-98631905D01*
X239630235Y-99757993D01*
X239628612Y-99791020D01*
X239623760Y-99823730D01*
X239615726Y-99855806D01*
X239604586Y-99886940D01*
X239590448Y-99916833D01*
X239573448Y-99945196D01*
X239553750Y-99971756D01*
X239531543Y-99996257D01*
X239507042Y-100018464D01*
X239480482Y-100038162D01*
X239452119Y-100055162D01*
X239422226Y-100069300D01*
X239391092Y-100080440D01*
X239359016Y-100088474D01*
X239326306Y-100093326D01*
X239293279Y-100094949D01*
X238417191Y-100094949D01*
X238384164Y-100093326D01*
X238351454Y-100088474D01*
X238319378Y-100080440D01*
X238288244Y-100069300D01*
X238258351Y-100055162D01*
X238229988Y-100038162D01*
X238203428Y-100018464D01*
X238178927Y-99996257D01*
X238156720Y-99971756D01*
X238137022Y-99945196D01*
X238120022Y-99916833D01*
X238105884Y-99886940D01*
X238094744Y-99855806D01*
X238086710Y-99823730D01*
X238081858Y-99791020D01*
X238080235Y-99757993D01*
X238080235Y-98631905D01*
X238081858Y-98598878D01*
X238086710Y-98566168D01*
X238094744Y-98534092D01*
X238105884Y-98502958D01*
X238120022Y-98473065D01*
X238137022Y-98444702D01*
X238156720Y-98418142D01*
X238178927Y-98393641D01*
X238203428Y-98371434D01*
X238229988Y-98351736D01*
X238258351Y-98334736D01*
X238288244Y-98320598D01*
X238319378Y-98309458D01*
X238351454Y-98301424D01*
X238384164Y-98296572D01*
X238417191Y-98294949D01*
X239293279Y-98294949D01*
X239326306Y-98296572D01*
X239326306Y-98296572D01*
G37*
D17*
X238855235Y-99194949D03*
D15*
G36*
X237276306Y-98296572D02*
X237309016Y-98301424D01*
X237341092Y-98309458D01*
X237372226Y-98320598D01*
X237402119Y-98334736D01*
X237430482Y-98351736D01*
X237457042Y-98371434D01*
X237481543Y-98393641D01*
X237503750Y-98418142D01*
X237523448Y-98444702D01*
X237540448Y-98473065D01*
X237554586Y-98502958D01*
X237565726Y-98534092D01*
X237573760Y-98566168D01*
X237578612Y-98598878D01*
X237580235Y-98631905D01*
X237580235Y-99757993D01*
X237578612Y-99791020D01*
X237573760Y-99823730D01*
X237565726Y-99855806D01*
X237554586Y-99886940D01*
X237540448Y-99916833D01*
X237523448Y-99945196D01*
X237503750Y-99971756D01*
X237481543Y-99996257D01*
X237457042Y-100018464D01*
X237430482Y-100038162D01*
X237402119Y-100055162D01*
X237372226Y-100069300D01*
X237341092Y-100080440D01*
X237309016Y-100088474D01*
X237276306Y-100093326D01*
X237243279Y-100094949D01*
X236367191Y-100094949D01*
X236334164Y-100093326D01*
X236301454Y-100088474D01*
X236269378Y-100080440D01*
X236238244Y-100069300D01*
X236208351Y-100055162D01*
X236179988Y-100038162D01*
X236153428Y-100018464D01*
X236128927Y-99996257D01*
X236106720Y-99971756D01*
X236087022Y-99945196D01*
X236070022Y-99916833D01*
X236055884Y-99886940D01*
X236044744Y-99855806D01*
X236036710Y-99823730D01*
X236031858Y-99791020D01*
X236030235Y-99757993D01*
X236030235Y-98631905D01*
X236031858Y-98598878D01*
X236036710Y-98566168D01*
X236044744Y-98534092D01*
X236055884Y-98502958D01*
X236070022Y-98473065D01*
X236087022Y-98444702D01*
X236106720Y-98418142D01*
X236128927Y-98393641D01*
X236153428Y-98371434D01*
X236179988Y-98351736D01*
X236208351Y-98334736D01*
X236238244Y-98320598D01*
X236269378Y-98309458D01*
X236301454Y-98301424D01*
X236334164Y-98296572D01*
X236367191Y-98294949D01*
X237243279Y-98294949D01*
X237276306Y-98296572D01*
X237276306Y-98296572D01*
G37*
D17*
X236805235Y-99194949D03*
G04 #@! TD*
D11*
G04 #@! TO.C,SW1*
X272829235Y-95414949D03*
X272829235Y-92874949D03*
D10*
X272829235Y-90334949D03*
G04 #@! TD*
D24*
G04 #@! TO.C,SW3*
X241960235Y-141090949D03*
X241960235Y-148290949D03*
X244960235Y-141090949D03*
X244960235Y-148290949D03*
G04 #@! TD*
G04 #@! TO.C,SW4*
X272924235Y-132498949D03*
X272924235Y-125298949D03*
X269924235Y-132498949D03*
X269924235Y-125298949D03*
G04 #@! TD*
D25*
G04 #@! TO.C,SW5*
X254680235Y-150810949D03*
X247480235Y-150810949D03*
X254680235Y-153810949D03*
X247480235Y-153810949D03*
G04 #@! TD*
D26*
G04 #@! TO.C,SW6*
X235586235Y-92264949D03*
D27*
X233096235Y-91014949D03*
X233096235Y-86514949D03*
D26*
X235586235Y-85254949D03*
G04 #@! TD*
D25*
G04 #@! TO.C,SW7*
X247480235Y-138570949D03*
X254680235Y-138570949D03*
X247480235Y-135570949D03*
X254680235Y-135570949D03*
G04 #@! TD*
D24*
G04 #@! TO.C,SW8*
X257128235Y-90930949D03*
X257128235Y-83730949D03*
X254128235Y-90930949D03*
X254128235Y-83730949D03*
G04 #@! TD*
G04 #@! TO.C,SW9*
X257200235Y-141090949D03*
X257200235Y-148290949D03*
X260200235Y-141090949D03*
X260200235Y-148290949D03*
G04 #@! TD*
G04 #@! TO.C,SW10*
X245032235Y-74586949D03*
X245032235Y-81786949D03*
X248032235Y-74586949D03*
X248032235Y-81786949D03*
G04 #@! TD*
D28*
G04 #@! TO.C,Y1*
X254829235Y-115734949D03*
X249629235Y-115734949D03*
G04 #@! TD*
D15*
G04 #@! TO.C,LS1*
G36*
X269388381Y-102329265D02*
X269435073Y-102336191D01*
X269480862Y-102347661D01*
X269525306Y-102363563D01*
X269567977Y-102383745D01*
X269608464Y-102408012D01*
X269646378Y-102436131D01*
X269681353Y-102467831D01*
X269713053Y-102502806D01*
X269741172Y-102540720D01*
X269765439Y-102581207D01*
X269785621Y-102623878D01*
X269801523Y-102668322D01*
X269812993Y-102714111D01*
X269819919Y-102760803D01*
X269822235Y-102807949D01*
X269822235Y-103769949D01*
X269819919Y-103817095D01*
X269812993Y-103863787D01*
X269801523Y-103909576D01*
X269785621Y-103954020D01*
X269765439Y-103996691D01*
X269741172Y-104037178D01*
X269713053Y-104075092D01*
X269681353Y-104110067D01*
X269646378Y-104141767D01*
X269608464Y-104169886D01*
X269567977Y-104194153D01*
X269525306Y-104214335D01*
X269480862Y-104230237D01*
X269435073Y-104241707D01*
X269388381Y-104248633D01*
X269341235Y-104250949D01*
X268379235Y-104250949D01*
X268332089Y-104248633D01*
X268285397Y-104241707D01*
X268239608Y-104230237D01*
X268195164Y-104214335D01*
X268152493Y-104194153D01*
X268112006Y-104169886D01*
X268074092Y-104141767D01*
X268039117Y-104110067D01*
X268007417Y-104075092D01*
X267979298Y-104037178D01*
X267955031Y-103996691D01*
X267934849Y-103954020D01*
X267918947Y-103909576D01*
X267907477Y-103863787D01*
X267900551Y-103817095D01*
X267898235Y-103769949D01*
X267898235Y-102807949D01*
X267900551Y-102760803D01*
X267907477Y-102714111D01*
X267918947Y-102668322D01*
X267934849Y-102623878D01*
X267955031Y-102581207D01*
X267979298Y-102540720D01*
X268007417Y-102502806D01*
X268039117Y-102467831D01*
X268074092Y-102436131D01*
X268112006Y-102408012D01*
X268152493Y-102383745D01*
X268195164Y-102363563D01*
X268239608Y-102347661D01*
X268285397Y-102336191D01*
X268332089Y-102329265D01*
X268379235Y-102326949D01*
X269341235Y-102326949D01*
X269388381Y-102329265D01*
X269388381Y-102329265D01*
G37*
D29*
X268860235Y-103288949D03*
D15*
G36*
X269388381Y-100297265D02*
X269435073Y-100304191D01*
X269480862Y-100315661D01*
X269525306Y-100331563D01*
X269567977Y-100351745D01*
X269608464Y-100376012D01*
X269646378Y-100404131D01*
X269681353Y-100435831D01*
X269713053Y-100470806D01*
X269741172Y-100508720D01*
X269765439Y-100549207D01*
X269785621Y-100591878D01*
X269801523Y-100636322D01*
X269812993Y-100682111D01*
X269819919Y-100728803D01*
X269822235Y-100775949D01*
X269822235Y-101737949D01*
X269819919Y-101785095D01*
X269812993Y-101831787D01*
X269801523Y-101877576D01*
X269785621Y-101922020D01*
X269765439Y-101964691D01*
X269741172Y-102005178D01*
X269713053Y-102043092D01*
X269681353Y-102078067D01*
X269646378Y-102109767D01*
X269608464Y-102137886D01*
X269567977Y-102162153D01*
X269525306Y-102182335D01*
X269480862Y-102198237D01*
X269435073Y-102209707D01*
X269388381Y-102216633D01*
X269341235Y-102218949D01*
X268379235Y-102218949D01*
X268332089Y-102216633D01*
X268285397Y-102209707D01*
X268239608Y-102198237D01*
X268195164Y-102182335D01*
X268152493Y-102162153D01*
X268112006Y-102137886D01*
X268074092Y-102109767D01*
X268039117Y-102078067D01*
X268007417Y-102043092D01*
X267979298Y-102005178D01*
X267955031Y-101964691D01*
X267934849Y-101922020D01*
X267918947Y-101877576D01*
X267907477Y-101831787D01*
X267900551Y-101785095D01*
X267898235Y-101737949D01*
X267898235Y-100775949D01*
X267900551Y-100728803D01*
X267907477Y-100682111D01*
X267918947Y-100636322D01*
X267934849Y-100591878D01*
X267955031Y-100549207D01*
X267979298Y-100508720D01*
X268007417Y-100470806D01*
X268039117Y-100435831D01*
X268074092Y-100404131D01*
X268112006Y-100376012D01*
X268152493Y-100351745D01*
X268195164Y-100331563D01*
X268239608Y-100315661D01*
X268285397Y-100304191D01*
X268332089Y-100297265D01*
X268379235Y-100294949D01*
X269341235Y-100294949D01*
X269388381Y-100297265D01*
X269388381Y-100297265D01*
G37*
D29*
X268860235Y-101256949D03*
G04 #@! TD*
D15*
G04 #@! TO.C,C5*
G36*
X249164816Y-96441574D02*
X249197578Y-96446434D01*
X249229706Y-96454482D01*
X249260891Y-96465640D01*
X249290831Y-96479801D01*
X249319240Y-96496828D01*
X249345843Y-96516558D01*
X249370384Y-96538800D01*
X249392626Y-96563341D01*
X249412356Y-96589944D01*
X249429383Y-96618353D01*
X249443544Y-96648293D01*
X249454702Y-96679478D01*
X249462750Y-96711606D01*
X249467610Y-96744368D01*
X249469235Y-96777449D01*
X249469235Y-97552449D01*
X249467610Y-97585530D01*
X249462750Y-97618292D01*
X249454702Y-97650420D01*
X249443544Y-97681605D01*
X249429383Y-97711545D01*
X249412356Y-97739954D01*
X249392626Y-97766557D01*
X249370384Y-97791098D01*
X249345843Y-97813340D01*
X249319240Y-97833070D01*
X249290831Y-97850097D01*
X249260891Y-97864258D01*
X249229706Y-97875416D01*
X249197578Y-97883464D01*
X249164816Y-97888324D01*
X249131735Y-97889949D01*
X248456735Y-97889949D01*
X248423654Y-97888324D01*
X248390892Y-97883464D01*
X248358764Y-97875416D01*
X248327579Y-97864258D01*
X248297639Y-97850097D01*
X248269230Y-97833070D01*
X248242627Y-97813340D01*
X248218086Y-97791098D01*
X248195844Y-97766557D01*
X248176114Y-97739954D01*
X248159087Y-97711545D01*
X248144926Y-97681605D01*
X248133768Y-97650420D01*
X248125720Y-97618292D01*
X248120860Y-97585530D01*
X248119235Y-97552449D01*
X248119235Y-96777449D01*
X248120860Y-96744368D01*
X248125720Y-96711606D01*
X248133768Y-96679478D01*
X248144926Y-96648293D01*
X248159087Y-96618353D01*
X248176114Y-96589944D01*
X248195844Y-96563341D01*
X248218086Y-96538800D01*
X248242627Y-96516558D01*
X248269230Y-96496828D01*
X248297639Y-96479801D01*
X248327579Y-96465640D01*
X248358764Y-96454482D01*
X248390892Y-96446434D01*
X248423654Y-96441574D01*
X248456735Y-96439949D01*
X249131735Y-96439949D01*
X249164816Y-96441574D01*
X249164816Y-96441574D01*
G37*
D16*
X248794235Y-97164949D03*
D15*
G36*
X249164816Y-94691574D02*
X249197578Y-94696434D01*
X249229706Y-94704482D01*
X249260891Y-94715640D01*
X249290831Y-94729801D01*
X249319240Y-94746828D01*
X249345843Y-94766558D01*
X249370384Y-94788800D01*
X249392626Y-94813341D01*
X249412356Y-94839944D01*
X249429383Y-94868353D01*
X249443544Y-94898293D01*
X249454702Y-94929478D01*
X249462750Y-94961606D01*
X249467610Y-94994368D01*
X249469235Y-95027449D01*
X249469235Y-95802449D01*
X249467610Y-95835530D01*
X249462750Y-95868292D01*
X249454702Y-95900420D01*
X249443544Y-95931605D01*
X249429383Y-95961545D01*
X249412356Y-95989954D01*
X249392626Y-96016557D01*
X249370384Y-96041098D01*
X249345843Y-96063340D01*
X249319240Y-96083070D01*
X249290831Y-96100097D01*
X249260891Y-96114258D01*
X249229706Y-96125416D01*
X249197578Y-96133464D01*
X249164816Y-96138324D01*
X249131735Y-96139949D01*
X248456735Y-96139949D01*
X248423654Y-96138324D01*
X248390892Y-96133464D01*
X248358764Y-96125416D01*
X248327579Y-96114258D01*
X248297639Y-96100097D01*
X248269230Y-96083070D01*
X248242627Y-96063340D01*
X248218086Y-96041098D01*
X248195844Y-96016557D01*
X248176114Y-95989954D01*
X248159087Y-95961545D01*
X248144926Y-95931605D01*
X248133768Y-95900420D01*
X248125720Y-95868292D01*
X248120860Y-95835530D01*
X248119235Y-95802449D01*
X248119235Y-95027449D01*
X248120860Y-94994368D01*
X248125720Y-94961606D01*
X248133768Y-94929478D01*
X248144926Y-94898293D01*
X248159087Y-94868353D01*
X248176114Y-94839944D01*
X248195844Y-94813341D01*
X248218086Y-94788800D01*
X248242627Y-94766558D01*
X248269230Y-94746828D01*
X248297639Y-94729801D01*
X248327579Y-94715640D01*
X248358764Y-94704482D01*
X248390892Y-94696434D01*
X248423654Y-94691574D01*
X248456735Y-94689949D01*
X249131735Y-94689949D01*
X249164816Y-94691574D01*
X249164816Y-94691574D01*
G37*
D16*
X248794235Y-95414949D03*
G04 #@! TD*
D15*
G04 #@! TO.C,C6*
G36*
X261864816Y-106883574D02*
X261897578Y-106888434D01*
X261929706Y-106896482D01*
X261960891Y-106907640D01*
X261990831Y-106921801D01*
X262019240Y-106938828D01*
X262045843Y-106958558D01*
X262070384Y-106980800D01*
X262092626Y-107005341D01*
X262112356Y-107031944D01*
X262129383Y-107060353D01*
X262143544Y-107090293D01*
X262154702Y-107121478D01*
X262162750Y-107153606D01*
X262167610Y-107186368D01*
X262169235Y-107219449D01*
X262169235Y-107994449D01*
X262167610Y-108027530D01*
X262162750Y-108060292D01*
X262154702Y-108092420D01*
X262143544Y-108123605D01*
X262129383Y-108153545D01*
X262112356Y-108181954D01*
X262092626Y-108208557D01*
X262070384Y-108233098D01*
X262045843Y-108255340D01*
X262019240Y-108275070D01*
X261990831Y-108292097D01*
X261960891Y-108306258D01*
X261929706Y-108317416D01*
X261897578Y-108325464D01*
X261864816Y-108330324D01*
X261831735Y-108331949D01*
X261156735Y-108331949D01*
X261123654Y-108330324D01*
X261090892Y-108325464D01*
X261058764Y-108317416D01*
X261027579Y-108306258D01*
X260997639Y-108292097D01*
X260969230Y-108275070D01*
X260942627Y-108255340D01*
X260918086Y-108233098D01*
X260895844Y-108208557D01*
X260876114Y-108181954D01*
X260859087Y-108153545D01*
X260844926Y-108123605D01*
X260833768Y-108092420D01*
X260825720Y-108060292D01*
X260820860Y-108027530D01*
X260819235Y-107994449D01*
X260819235Y-107219449D01*
X260820860Y-107186368D01*
X260825720Y-107153606D01*
X260833768Y-107121478D01*
X260844926Y-107090293D01*
X260859087Y-107060353D01*
X260876114Y-107031944D01*
X260895844Y-107005341D01*
X260918086Y-106980800D01*
X260942627Y-106958558D01*
X260969230Y-106938828D01*
X260997639Y-106921801D01*
X261027579Y-106907640D01*
X261058764Y-106896482D01*
X261090892Y-106888434D01*
X261123654Y-106883574D01*
X261156735Y-106881949D01*
X261831735Y-106881949D01*
X261864816Y-106883574D01*
X261864816Y-106883574D01*
G37*
D16*
X261494235Y-107606949D03*
D15*
G36*
X261864816Y-105133574D02*
X261897578Y-105138434D01*
X261929706Y-105146482D01*
X261960891Y-105157640D01*
X261990831Y-105171801D01*
X262019240Y-105188828D01*
X262045843Y-105208558D01*
X262070384Y-105230800D01*
X262092626Y-105255341D01*
X262112356Y-105281944D01*
X262129383Y-105310353D01*
X262143544Y-105340293D01*
X262154702Y-105371478D01*
X262162750Y-105403606D01*
X262167610Y-105436368D01*
X262169235Y-105469449D01*
X262169235Y-106244449D01*
X262167610Y-106277530D01*
X262162750Y-106310292D01*
X262154702Y-106342420D01*
X262143544Y-106373605D01*
X262129383Y-106403545D01*
X262112356Y-106431954D01*
X262092626Y-106458557D01*
X262070384Y-106483098D01*
X262045843Y-106505340D01*
X262019240Y-106525070D01*
X261990831Y-106542097D01*
X261960891Y-106556258D01*
X261929706Y-106567416D01*
X261897578Y-106575464D01*
X261864816Y-106580324D01*
X261831735Y-106581949D01*
X261156735Y-106581949D01*
X261123654Y-106580324D01*
X261090892Y-106575464D01*
X261058764Y-106567416D01*
X261027579Y-106556258D01*
X260997639Y-106542097D01*
X260969230Y-106525070D01*
X260942627Y-106505340D01*
X260918086Y-106483098D01*
X260895844Y-106458557D01*
X260876114Y-106431954D01*
X260859087Y-106403545D01*
X260844926Y-106373605D01*
X260833768Y-106342420D01*
X260825720Y-106310292D01*
X260820860Y-106277530D01*
X260819235Y-106244449D01*
X260819235Y-105469449D01*
X260820860Y-105436368D01*
X260825720Y-105403606D01*
X260833768Y-105371478D01*
X260844926Y-105340293D01*
X260859087Y-105310353D01*
X260876114Y-105281944D01*
X260895844Y-105255341D01*
X260918086Y-105230800D01*
X260942627Y-105208558D01*
X260969230Y-105188828D01*
X260997639Y-105171801D01*
X261027579Y-105157640D01*
X261058764Y-105146482D01*
X261090892Y-105138434D01*
X261123654Y-105133574D01*
X261156735Y-105131949D01*
X261831735Y-105131949D01*
X261864816Y-105133574D01*
X261864816Y-105133574D01*
G37*
D16*
X261494235Y-105856949D03*
G04 #@! TD*
D15*
G04 #@! TO.C,C7*
G36*
X261356816Y-99517574D02*
X261389578Y-99522434D01*
X261421706Y-99530482D01*
X261452891Y-99541640D01*
X261482831Y-99555801D01*
X261511240Y-99572828D01*
X261537843Y-99592558D01*
X261562384Y-99614800D01*
X261584626Y-99639341D01*
X261604356Y-99665944D01*
X261621383Y-99694353D01*
X261635544Y-99724293D01*
X261646702Y-99755478D01*
X261654750Y-99787606D01*
X261659610Y-99820368D01*
X261661235Y-99853449D01*
X261661235Y-100628449D01*
X261659610Y-100661530D01*
X261654750Y-100694292D01*
X261646702Y-100726420D01*
X261635544Y-100757605D01*
X261621383Y-100787545D01*
X261604356Y-100815954D01*
X261584626Y-100842557D01*
X261562384Y-100867098D01*
X261537843Y-100889340D01*
X261511240Y-100909070D01*
X261482831Y-100926097D01*
X261452891Y-100940258D01*
X261421706Y-100951416D01*
X261389578Y-100959464D01*
X261356816Y-100964324D01*
X261323735Y-100965949D01*
X260648735Y-100965949D01*
X260615654Y-100964324D01*
X260582892Y-100959464D01*
X260550764Y-100951416D01*
X260519579Y-100940258D01*
X260489639Y-100926097D01*
X260461230Y-100909070D01*
X260434627Y-100889340D01*
X260410086Y-100867098D01*
X260387844Y-100842557D01*
X260368114Y-100815954D01*
X260351087Y-100787545D01*
X260336926Y-100757605D01*
X260325768Y-100726420D01*
X260317720Y-100694292D01*
X260312860Y-100661530D01*
X260311235Y-100628449D01*
X260311235Y-99853449D01*
X260312860Y-99820368D01*
X260317720Y-99787606D01*
X260325768Y-99755478D01*
X260336926Y-99724293D01*
X260351087Y-99694353D01*
X260368114Y-99665944D01*
X260387844Y-99639341D01*
X260410086Y-99614800D01*
X260434627Y-99592558D01*
X260461230Y-99572828D01*
X260489639Y-99555801D01*
X260519579Y-99541640D01*
X260550764Y-99530482D01*
X260582892Y-99522434D01*
X260615654Y-99517574D01*
X260648735Y-99515949D01*
X261323735Y-99515949D01*
X261356816Y-99517574D01*
X261356816Y-99517574D01*
G37*
D16*
X260986235Y-100240949D03*
D15*
G36*
X261356816Y-97767574D02*
X261389578Y-97772434D01*
X261421706Y-97780482D01*
X261452891Y-97791640D01*
X261482831Y-97805801D01*
X261511240Y-97822828D01*
X261537843Y-97842558D01*
X261562384Y-97864800D01*
X261584626Y-97889341D01*
X261604356Y-97915944D01*
X261621383Y-97944353D01*
X261635544Y-97974293D01*
X261646702Y-98005478D01*
X261654750Y-98037606D01*
X261659610Y-98070368D01*
X261661235Y-98103449D01*
X261661235Y-98878449D01*
X261659610Y-98911530D01*
X261654750Y-98944292D01*
X261646702Y-98976420D01*
X261635544Y-99007605D01*
X261621383Y-99037545D01*
X261604356Y-99065954D01*
X261584626Y-99092557D01*
X261562384Y-99117098D01*
X261537843Y-99139340D01*
X261511240Y-99159070D01*
X261482831Y-99176097D01*
X261452891Y-99190258D01*
X261421706Y-99201416D01*
X261389578Y-99209464D01*
X261356816Y-99214324D01*
X261323735Y-99215949D01*
X260648735Y-99215949D01*
X260615654Y-99214324D01*
X260582892Y-99209464D01*
X260550764Y-99201416D01*
X260519579Y-99190258D01*
X260489639Y-99176097D01*
X260461230Y-99159070D01*
X260434627Y-99139340D01*
X260410086Y-99117098D01*
X260387844Y-99092557D01*
X260368114Y-99065954D01*
X260351087Y-99037545D01*
X260336926Y-99007605D01*
X260325768Y-98976420D01*
X260317720Y-98944292D01*
X260312860Y-98911530D01*
X260311235Y-98878449D01*
X260311235Y-98103449D01*
X260312860Y-98070368D01*
X260317720Y-98037606D01*
X260325768Y-98005478D01*
X260336926Y-97974293D01*
X260351087Y-97944353D01*
X260368114Y-97915944D01*
X260387844Y-97889341D01*
X260410086Y-97864800D01*
X260434627Y-97842558D01*
X260461230Y-97822828D01*
X260489639Y-97805801D01*
X260519579Y-97791640D01*
X260550764Y-97780482D01*
X260582892Y-97772434D01*
X260615654Y-97767574D01*
X260648735Y-97765949D01*
X261323735Y-97765949D01*
X261356816Y-97767574D01*
X261356816Y-97767574D01*
G37*
D16*
X260986235Y-98490949D03*
G04 #@! TD*
D15*
G04 #@! TO.C,C8*
G36*
X246624816Y-107504574D02*
X246657578Y-107509434D01*
X246689706Y-107517482D01*
X246720891Y-107528640D01*
X246750831Y-107542801D01*
X246779240Y-107559828D01*
X246805843Y-107579558D01*
X246830384Y-107601800D01*
X246852626Y-107626341D01*
X246872356Y-107652944D01*
X246889383Y-107681353D01*
X246903544Y-107711293D01*
X246914702Y-107742478D01*
X246922750Y-107774606D01*
X246927610Y-107807368D01*
X246929235Y-107840449D01*
X246929235Y-108615449D01*
X246927610Y-108648530D01*
X246922750Y-108681292D01*
X246914702Y-108713420D01*
X246903544Y-108744605D01*
X246889383Y-108774545D01*
X246872356Y-108802954D01*
X246852626Y-108829557D01*
X246830384Y-108854098D01*
X246805843Y-108876340D01*
X246779240Y-108896070D01*
X246750831Y-108913097D01*
X246720891Y-108927258D01*
X246689706Y-108938416D01*
X246657578Y-108946464D01*
X246624816Y-108951324D01*
X246591735Y-108952949D01*
X245916735Y-108952949D01*
X245883654Y-108951324D01*
X245850892Y-108946464D01*
X245818764Y-108938416D01*
X245787579Y-108927258D01*
X245757639Y-108913097D01*
X245729230Y-108896070D01*
X245702627Y-108876340D01*
X245678086Y-108854098D01*
X245655844Y-108829557D01*
X245636114Y-108802954D01*
X245619087Y-108774545D01*
X245604926Y-108744605D01*
X245593768Y-108713420D01*
X245585720Y-108681292D01*
X245580860Y-108648530D01*
X245579235Y-108615449D01*
X245579235Y-107840449D01*
X245580860Y-107807368D01*
X245585720Y-107774606D01*
X245593768Y-107742478D01*
X245604926Y-107711293D01*
X245619087Y-107681353D01*
X245636114Y-107652944D01*
X245655844Y-107626341D01*
X245678086Y-107601800D01*
X245702627Y-107579558D01*
X245729230Y-107559828D01*
X245757639Y-107542801D01*
X245787579Y-107528640D01*
X245818764Y-107517482D01*
X245850892Y-107509434D01*
X245883654Y-107504574D01*
X245916735Y-107502949D01*
X246591735Y-107502949D01*
X246624816Y-107504574D01*
X246624816Y-107504574D01*
G37*
D16*
X246254235Y-108227949D03*
D15*
G36*
X246624816Y-105754574D02*
X246657578Y-105759434D01*
X246689706Y-105767482D01*
X246720891Y-105778640D01*
X246750831Y-105792801D01*
X246779240Y-105809828D01*
X246805843Y-105829558D01*
X246830384Y-105851800D01*
X246852626Y-105876341D01*
X246872356Y-105902944D01*
X246889383Y-105931353D01*
X246903544Y-105961293D01*
X246914702Y-105992478D01*
X246922750Y-106024606D01*
X246927610Y-106057368D01*
X246929235Y-106090449D01*
X246929235Y-106865449D01*
X246927610Y-106898530D01*
X246922750Y-106931292D01*
X246914702Y-106963420D01*
X246903544Y-106994605D01*
X246889383Y-107024545D01*
X246872356Y-107052954D01*
X246852626Y-107079557D01*
X246830384Y-107104098D01*
X246805843Y-107126340D01*
X246779240Y-107146070D01*
X246750831Y-107163097D01*
X246720891Y-107177258D01*
X246689706Y-107188416D01*
X246657578Y-107196464D01*
X246624816Y-107201324D01*
X246591735Y-107202949D01*
X245916735Y-107202949D01*
X245883654Y-107201324D01*
X245850892Y-107196464D01*
X245818764Y-107188416D01*
X245787579Y-107177258D01*
X245757639Y-107163097D01*
X245729230Y-107146070D01*
X245702627Y-107126340D01*
X245678086Y-107104098D01*
X245655844Y-107079557D01*
X245636114Y-107052954D01*
X245619087Y-107024545D01*
X245604926Y-106994605D01*
X245593768Y-106963420D01*
X245585720Y-106931292D01*
X245580860Y-106898530D01*
X245579235Y-106865449D01*
X245579235Y-106090449D01*
X245580860Y-106057368D01*
X245585720Y-106024606D01*
X245593768Y-105992478D01*
X245604926Y-105961293D01*
X245619087Y-105931353D01*
X245636114Y-105902944D01*
X245655844Y-105876341D01*
X245678086Y-105851800D01*
X245702627Y-105829558D01*
X245729230Y-105809828D01*
X245757639Y-105792801D01*
X245787579Y-105778640D01*
X245818764Y-105767482D01*
X245850892Y-105759434D01*
X245883654Y-105754574D01*
X245916735Y-105752949D01*
X246591735Y-105752949D01*
X246624816Y-105754574D01*
X246624816Y-105754574D01*
G37*
D16*
X246254235Y-106477949D03*
G04 #@! TD*
D15*
G04 #@! TO.C,C10*
G36*
X255338816Y-110743574D02*
X255371578Y-110748434D01*
X255403706Y-110756482D01*
X255434891Y-110767640D01*
X255464831Y-110781801D01*
X255493240Y-110798828D01*
X255519843Y-110818558D01*
X255544384Y-110840800D01*
X255566626Y-110865341D01*
X255586356Y-110891944D01*
X255603383Y-110920353D01*
X255617544Y-110950293D01*
X255628702Y-110981478D01*
X255636750Y-111013606D01*
X255641610Y-111046368D01*
X255643235Y-111079449D01*
X255643235Y-111754449D01*
X255641610Y-111787530D01*
X255636750Y-111820292D01*
X255628702Y-111852420D01*
X255617544Y-111883605D01*
X255603383Y-111913545D01*
X255586356Y-111941954D01*
X255566626Y-111968557D01*
X255544384Y-111993098D01*
X255519843Y-112015340D01*
X255493240Y-112035070D01*
X255464831Y-112052097D01*
X255434891Y-112066258D01*
X255403706Y-112077416D01*
X255371578Y-112085464D01*
X255338816Y-112090324D01*
X255305735Y-112091949D01*
X254530735Y-112091949D01*
X254497654Y-112090324D01*
X254464892Y-112085464D01*
X254432764Y-112077416D01*
X254401579Y-112066258D01*
X254371639Y-112052097D01*
X254343230Y-112035070D01*
X254316627Y-112015340D01*
X254292086Y-111993098D01*
X254269844Y-111968557D01*
X254250114Y-111941954D01*
X254233087Y-111913545D01*
X254218926Y-111883605D01*
X254207768Y-111852420D01*
X254199720Y-111820292D01*
X254194860Y-111787530D01*
X254193235Y-111754449D01*
X254193235Y-111079449D01*
X254194860Y-111046368D01*
X254199720Y-111013606D01*
X254207768Y-110981478D01*
X254218926Y-110950293D01*
X254233087Y-110920353D01*
X254250114Y-110891944D01*
X254269844Y-110865341D01*
X254292086Y-110840800D01*
X254316627Y-110818558D01*
X254343230Y-110798828D01*
X254371639Y-110781801D01*
X254401579Y-110767640D01*
X254432764Y-110756482D01*
X254464892Y-110748434D01*
X254497654Y-110743574D01*
X254530735Y-110741949D01*
X255305735Y-110741949D01*
X255338816Y-110743574D01*
X255338816Y-110743574D01*
G37*
D16*
X254918235Y-111416949D03*
D15*
G36*
X257088816Y-110743574D02*
X257121578Y-110748434D01*
X257153706Y-110756482D01*
X257184891Y-110767640D01*
X257214831Y-110781801D01*
X257243240Y-110798828D01*
X257269843Y-110818558D01*
X257294384Y-110840800D01*
X257316626Y-110865341D01*
X257336356Y-110891944D01*
X257353383Y-110920353D01*
X257367544Y-110950293D01*
X257378702Y-110981478D01*
X257386750Y-111013606D01*
X257391610Y-111046368D01*
X257393235Y-111079449D01*
X257393235Y-111754449D01*
X257391610Y-111787530D01*
X257386750Y-111820292D01*
X257378702Y-111852420D01*
X257367544Y-111883605D01*
X257353383Y-111913545D01*
X257336356Y-111941954D01*
X257316626Y-111968557D01*
X257294384Y-111993098D01*
X257269843Y-112015340D01*
X257243240Y-112035070D01*
X257214831Y-112052097D01*
X257184891Y-112066258D01*
X257153706Y-112077416D01*
X257121578Y-112085464D01*
X257088816Y-112090324D01*
X257055735Y-112091949D01*
X256280735Y-112091949D01*
X256247654Y-112090324D01*
X256214892Y-112085464D01*
X256182764Y-112077416D01*
X256151579Y-112066258D01*
X256121639Y-112052097D01*
X256093230Y-112035070D01*
X256066627Y-112015340D01*
X256042086Y-111993098D01*
X256019844Y-111968557D01*
X256000114Y-111941954D01*
X255983087Y-111913545D01*
X255968926Y-111883605D01*
X255957768Y-111852420D01*
X255949720Y-111820292D01*
X255944860Y-111787530D01*
X255943235Y-111754449D01*
X255943235Y-111079449D01*
X255944860Y-111046368D01*
X255949720Y-111013606D01*
X255957768Y-110981478D01*
X255968926Y-110950293D01*
X255983087Y-110920353D01*
X256000114Y-110891944D01*
X256019844Y-110865341D01*
X256042086Y-110840800D01*
X256066627Y-110818558D01*
X256093230Y-110798828D01*
X256121639Y-110781801D01*
X256151579Y-110767640D01*
X256182764Y-110756482D01*
X256214892Y-110748434D01*
X256247654Y-110743574D01*
X256280735Y-110741949D01*
X257055735Y-110741949D01*
X257088816Y-110743574D01*
X257088816Y-110743574D01*
G37*
D16*
X256668235Y-111416949D03*
G04 #@! TD*
D15*
G04 #@! TO.C,C11*
G36*
X252262816Y-110743574D02*
X252295578Y-110748434D01*
X252327706Y-110756482D01*
X252358891Y-110767640D01*
X252388831Y-110781801D01*
X252417240Y-110798828D01*
X252443843Y-110818558D01*
X252468384Y-110840800D01*
X252490626Y-110865341D01*
X252510356Y-110891944D01*
X252527383Y-110920353D01*
X252541544Y-110950293D01*
X252552702Y-110981478D01*
X252560750Y-111013606D01*
X252565610Y-111046368D01*
X252567235Y-111079449D01*
X252567235Y-111754449D01*
X252565610Y-111787530D01*
X252560750Y-111820292D01*
X252552702Y-111852420D01*
X252541544Y-111883605D01*
X252527383Y-111913545D01*
X252510356Y-111941954D01*
X252490626Y-111968557D01*
X252468384Y-111993098D01*
X252443843Y-112015340D01*
X252417240Y-112035070D01*
X252388831Y-112052097D01*
X252358891Y-112066258D01*
X252327706Y-112077416D01*
X252295578Y-112085464D01*
X252262816Y-112090324D01*
X252229735Y-112091949D01*
X251454735Y-112091949D01*
X251421654Y-112090324D01*
X251388892Y-112085464D01*
X251356764Y-112077416D01*
X251325579Y-112066258D01*
X251295639Y-112052097D01*
X251267230Y-112035070D01*
X251240627Y-112015340D01*
X251216086Y-111993098D01*
X251193844Y-111968557D01*
X251174114Y-111941954D01*
X251157087Y-111913545D01*
X251142926Y-111883605D01*
X251131768Y-111852420D01*
X251123720Y-111820292D01*
X251118860Y-111787530D01*
X251117235Y-111754449D01*
X251117235Y-111079449D01*
X251118860Y-111046368D01*
X251123720Y-111013606D01*
X251131768Y-110981478D01*
X251142926Y-110950293D01*
X251157087Y-110920353D01*
X251174114Y-110891944D01*
X251193844Y-110865341D01*
X251216086Y-110840800D01*
X251240627Y-110818558D01*
X251267230Y-110798828D01*
X251295639Y-110781801D01*
X251325579Y-110767640D01*
X251356764Y-110756482D01*
X251388892Y-110748434D01*
X251421654Y-110743574D01*
X251454735Y-110741949D01*
X252229735Y-110741949D01*
X252262816Y-110743574D01*
X252262816Y-110743574D01*
G37*
D16*
X251842235Y-111416949D03*
D15*
G36*
X254012816Y-110743574D02*
X254045578Y-110748434D01*
X254077706Y-110756482D01*
X254108891Y-110767640D01*
X254138831Y-110781801D01*
X254167240Y-110798828D01*
X254193843Y-110818558D01*
X254218384Y-110840800D01*
X254240626Y-110865341D01*
X254260356Y-110891944D01*
X254277383Y-110920353D01*
X254291544Y-110950293D01*
X254302702Y-110981478D01*
X254310750Y-111013606D01*
X254315610Y-111046368D01*
X254317235Y-111079449D01*
X254317235Y-111754449D01*
X254315610Y-111787530D01*
X254310750Y-111820292D01*
X254302702Y-111852420D01*
X254291544Y-111883605D01*
X254277383Y-111913545D01*
X254260356Y-111941954D01*
X254240626Y-111968557D01*
X254218384Y-111993098D01*
X254193843Y-112015340D01*
X254167240Y-112035070D01*
X254138831Y-112052097D01*
X254108891Y-112066258D01*
X254077706Y-112077416D01*
X254045578Y-112085464D01*
X254012816Y-112090324D01*
X253979735Y-112091949D01*
X253204735Y-112091949D01*
X253171654Y-112090324D01*
X253138892Y-112085464D01*
X253106764Y-112077416D01*
X253075579Y-112066258D01*
X253045639Y-112052097D01*
X253017230Y-112035070D01*
X252990627Y-112015340D01*
X252966086Y-111993098D01*
X252943844Y-111968557D01*
X252924114Y-111941954D01*
X252907087Y-111913545D01*
X252892926Y-111883605D01*
X252881768Y-111852420D01*
X252873720Y-111820292D01*
X252868860Y-111787530D01*
X252867235Y-111754449D01*
X252867235Y-111079449D01*
X252868860Y-111046368D01*
X252873720Y-111013606D01*
X252881768Y-110981478D01*
X252892926Y-110950293D01*
X252907087Y-110920353D01*
X252924114Y-110891944D01*
X252943844Y-110865341D01*
X252966086Y-110840800D01*
X252990627Y-110818558D01*
X253017230Y-110798828D01*
X253045639Y-110781801D01*
X253075579Y-110767640D01*
X253106764Y-110756482D01*
X253138892Y-110748434D01*
X253171654Y-110743574D01*
X253204735Y-110741949D01*
X253979735Y-110741949D01*
X254012816Y-110743574D01*
X254012816Y-110743574D01*
G37*
D16*
X253592235Y-111416949D03*
G04 #@! TD*
D15*
G04 #@! TO.C,R1*
G36*
X253250816Y-120141574D02*
X253283578Y-120146434D01*
X253315706Y-120154482D01*
X253346891Y-120165640D01*
X253376831Y-120179801D01*
X253405240Y-120196828D01*
X253431843Y-120216558D01*
X253456384Y-120238800D01*
X253478626Y-120263341D01*
X253498356Y-120289944D01*
X253515383Y-120318353D01*
X253529544Y-120348293D01*
X253540702Y-120379478D01*
X253548750Y-120411606D01*
X253553610Y-120444368D01*
X253555235Y-120477449D01*
X253555235Y-121152449D01*
X253553610Y-121185530D01*
X253548750Y-121218292D01*
X253540702Y-121250420D01*
X253529544Y-121281605D01*
X253515383Y-121311545D01*
X253498356Y-121339954D01*
X253478626Y-121366557D01*
X253456384Y-121391098D01*
X253431843Y-121413340D01*
X253405240Y-121433070D01*
X253376831Y-121450097D01*
X253346891Y-121464258D01*
X253315706Y-121475416D01*
X253283578Y-121483464D01*
X253250816Y-121488324D01*
X253217735Y-121489949D01*
X252442735Y-121489949D01*
X252409654Y-121488324D01*
X252376892Y-121483464D01*
X252344764Y-121475416D01*
X252313579Y-121464258D01*
X252283639Y-121450097D01*
X252255230Y-121433070D01*
X252228627Y-121413340D01*
X252204086Y-121391098D01*
X252181844Y-121366557D01*
X252162114Y-121339954D01*
X252145087Y-121311545D01*
X252130926Y-121281605D01*
X252119768Y-121250420D01*
X252111720Y-121218292D01*
X252106860Y-121185530D01*
X252105235Y-121152449D01*
X252105235Y-120477449D01*
X252106860Y-120444368D01*
X252111720Y-120411606D01*
X252119768Y-120379478D01*
X252130926Y-120348293D01*
X252145087Y-120318353D01*
X252162114Y-120289944D01*
X252181844Y-120263341D01*
X252204086Y-120238800D01*
X252228627Y-120216558D01*
X252255230Y-120196828D01*
X252283639Y-120179801D01*
X252313579Y-120165640D01*
X252344764Y-120154482D01*
X252376892Y-120146434D01*
X252409654Y-120141574D01*
X252442735Y-120139949D01*
X253217735Y-120139949D01*
X253250816Y-120141574D01*
X253250816Y-120141574D01*
G37*
D16*
X252830235Y-120814949D03*
D15*
G36*
X251500816Y-120141574D02*
X251533578Y-120146434D01*
X251565706Y-120154482D01*
X251596891Y-120165640D01*
X251626831Y-120179801D01*
X251655240Y-120196828D01*
X251681843Y-120216558D01*
X251706384Y-120238800D01*
X251728626Y-120263341D01*
X251748356Y-120289944D01*
X251765383Y-120318353D01*
X251779544Y-120348293D01*
X251790702Y-120379478D01*
X251798750Y-120411606D01*
X251803610Y-120444368D01*
X251805235Y-120477449D01*
X251805235Y-121152449D01*
X251803610Y-121185530D01*
X251798750Y-121218292D01*
X251790702Y-121250420D01*
X251779544Y-121281605D01*
X251765383Y-121311545D01*
X251748356Y-121339954D01*
X251728626Y-121366557D01*
X251706384Y-121391098D01*
X251681843Y-121413340D01*
X251655240Y-121433070D01*
X251626831Y-121450097D01*
X251596891Y-121464258D01*
X251565706Y-121475416D01*
X251533578Y-121483464D01*
X251500816Y-121488324D01*
X251467735Y-121489949D01*
X250692735Y-121489949D01*
X250659654Y-121488324D01*
X250626892Y-121483464D01*
X250594764Y-121475416D01*
X250563579Y-121464258D01*
X250533639Y-121450097D01*
X250505230Y-121433070D01*
X250478627Y-121413340D01*
X250454086Y-121391098D01*
X250431844Y-121366557D01*
X250412114Y-121339954D01*
X250395087Y-121311545D01*
X250380926Y-121281605D01*
X250369768Y-121250420D01*
X250361720Y-121218292D01*
X250356860Y-121185530D01*
X250355235Y-121152449D01*
X250355235Y-120477449D01*
X250356860Y-120444368D01*
X250361720Y-120411606D01*
X250369768Y-120379478D01*
X250380926Y-120348293D01*
X250395087Y-120318353D01*
X250412114Y-120289944D01*
X250431844Y-120263341D01*
X250454086Y-120238800D01*
X250478627Y-120216558D01*
X250505230Y-120196828D01*
X250533639Y-120179801D01*
X250563579Y-120165640D01*
X250594764Y-120154482D01*
X250626892Y-120146434D01*
X250659654Y-120141574D01*
X250692735Y-120139949D01*
X251467735Y-120139949D01*
X251500816Y-120141574D01*
X251500816Y-120141574D01*
G37*
D16*
X251080235Y-120814949D03*
G04 #@! TD*
D15*
G04 #@! TO.C,R2*
G36*
X270778047Y-147289141D02*
X270810809Y-147294001D01*
X270842937Y-147302049D01*
X270874122Y-147313207D01*
X270904062Y-147327368D01*
X270932471Y-147344395D01*
X270959074Y-147364125D01*
X270983615Y-147386367D01*
X271005857Y-147410908D01*
X271025587Y-147437511D01*
X271042614Y-147465920D01*
X271056775Y-147495860D01*
X271067933Y-147527045D01*
X271075981Y-147559173D01*
X271080841Y-147591935D01*
X271082466Y-147625016D01*
X271082466Y-148300016D01*
X271080841Y-148333097D01*
X271075981Y-148365859D01*
X271067933Y-148397987D01*
X271056775Y-148429172D01*
X271042614Y-148459112D01*
X271025587Y-148487521D01*
X271005857Y-148514124D01*
X270983615Y-148538665D01*
X270959074Y-148560907D01*
X270932471Y-148580637D01*
X270904062Y-148597664D01*
X270874122Y-148611825D01*
X270842937Y-148622983D01*
X270810809Y-148631031D01*
X270778047Y-148635891D01*
X270744966Y-148637516D01*
X269969966Y-148637516D01*
X269936885Y-148635891D01*
X269904123Y-148631031D01*
X269871995Y-148622983D01*
X269840810Y-148611825D01*
X269810870Y-148597664D01*
X269782461Y-148580637D01*
X269755858Y-148560907D01*
X269731317Y-148538665D01*
X269709075Y-148514124D01*
X269689345Y-148487521D01*
X269672318Y-148459112D01*
X269658157Y-148429172D01*
X269646999Y-148397987D01*
X269638951Y-148365859D01*
X269634091Y-148333097D01*
X269632466Y-148300016D01*
X269632466Y-147625016D01*
X269634091Y-147591935D01*
X269638951Y-147559173D01*
X269646999Y-147527045D01*
X269658157Y-147495860D01*
X269672318Y-147465920D01*
X269689345Y-147437511D01*
X269709075Y-147410908D01*
X269731317Y-147386367D01*
X269755858Y-147364125D01*
X269782461Y-147344395D01*
X269810870Y-147327368D01*
X269840810Y-147313207D01*
X269871995Y-147302049D01*
X269904123Y-147294001D01*
X269936885Y-147289141D01*
X269969966Y-147287516D01*
X270744966Y-147287516D01*
X270778047Y-147289141D01*
X270778047Y-147289141D01*
G37*
D16*
X270357466Y-147962516D03*
D15*
G36*
X269028047Y-147289141D02*
X269060809Y-147294001D01*
X269092937Y-147302049D01*
X269124122Y-147313207D01*
X269154062Y-147327368D01*
X269182471Y-147344395D01*
X269209074Y-147364125D01*
X269233615Y-147386367D01*
X269255857Y-147410908D01*
X269275587Y-147437511D01*
X269292614Y-147465920D01*
X269306775Y-147495860D01*
X269317933Y-147527045D01*
X269325981Y-147559173D01*
X269330841Y-147591935D01*
X269332466Y-147625016D01*
X269332466Y-148300016D01*
X269330841Y-148333097D01*
X269325981Y-148365859D01*
X269317933Y-148397987D01*
X269306775Y-148429172D01*
X269292614Y-148459112D01*
X269275587Y-148487521D01*
X269255857Y-148514124D01*
X269233615Y-148538665D01*
X269209074Y-148560907D01*
X269182471Y-148580637D01*
X269154062Y-148597664D01*
X269124122Y-148611825D01*
X269092937Y-148622983D01*
X269060809Y-148631031D01*
X269028047Y-148635891D01*
X268994966Y-148637516D01*
X268219966Y-148637516D01*
X268186885Y-148635891D01*
X268154123Y-148631031D01*
X268121995Y-148622983D01*
X268090810Y-148611825D01*
X268060870Y-148597664D01*
X268032461Y-148580637D01*
X268005858Y-148560907D01*
X267981317Y-148538665D01*
X267959075Y-148514124D01*
X267939345Y-148487521D01*
X267922318Y-148459112D01*
X267908157Y-148429172D01*
X267896999Y-148397987D01*
X267888951Y-148365859D01*
X267884091Y-148333097D01*
X267882466Y-148300016D01*
X267882466Y-147625016D01*
X267884091Y-147591935D01*
X267888951Y-147559173D01*
X267896999Y-147527045D01*
X267908157Y-147495860D01*
X267922318Y-147465920D01*
X267939345Y-147437511D01*
X267959075Y-147410908D01*
X267981317Y-147386367D01*
X268005858Y-147364125D01*
X268032461Y-147344395D01*
X268060870Y-147327368D01*
X268090810Y-147313207D01*
X268121995Y-147302049D01*
X268154123Y-147294001D01*
X268186885Y-147289141D01*
X268219966Y-147287516D01*
X268994966Y-147287516D01*
X269028047Y-147289141D01*
X269028047Y-147289141D01*
G37*
D16*
X268607466Y-147962516D03*
G04 #@! TD*
D10*
G04 #@! TO.C,BT1*
X272644835Y-85000949D03*
D11*
X270104835Y-85000949D03*
G04 #@! TD*
D10*
G04 #@! TO.C,J4*
X232030235Y-80428949D03*
D11*
X232030235Y-77888949D03*
X232030235Y-75348949D03*
X232030235Y-72808949D03*
X232030235Y-70268949D03*
X232030235Y-67728949D03*
G04 #@! TD*
D30*
G04 #@! TO.C,REF\002A\002A*
X270580235Y-158194949D03*
G04 #@! TD*
M02*
