G04 #@! TF.GenerationSoftware,KiCad,Pcbnew,5.0.0*
G04 #@! TF.CreationDate,2018-07-30T23:26:50+02:00*
G04 #@! TF.ProjectId,mokki-dev-board,6D6F6B6B692D6465762D626F6172642E,rev?*
G04 #@! TF.SameCoordinates,Original*
G04 #@! TF.FileFunction,Legend,Top*
G04 #@! TF.FilePolarity,Positive*
%FSLAX46Y46*%
G04 Gerber Fmt 4.6, Leading zero omitted, Abs format (unit mm)*
G04 Created by KiCad (PCBNEW 5.0.0) date Mon Jul 30 23:26:50 2018*
%MOMM*%
%LPD*%
G01*
G04 APERTURE LIST*
%ADD10C,0.175000*%
%ADD11C,0.300000*%
%ADD12C,0.200000*%
%ADD13C,0.150000*%
%ADD14C,0.120000*%
G04 APERTURE END LIST*
D10*
X169656666Y-128492666D02*
X169790000Y-128492666D01*
X169856666Y-128526000D01*
X169923333Y-128592666D01*
X169956666Y-128726000D01*
X169956666Y-128959333D01*
X169923333Y-129092666D01*
X169856666Y-129159333D01*
X169790000Y-129192666D01*
X169656666Y-129192666D01*
X169590000Y-129159333D01*
X169523333Y-129092666D01*
X169490000Y-128959333D01*
X169490000Y-128726000D01*
X169523333Y-128592666D01*
X169590000Y-128526000D01*
X169656666Y-128492666D01*
X170256666Y-129192666D02*
X170256666Y-128492666D01*
X170656666Y-129192666D01*
X170656666Y-128492666D01*
X166883333Y-128492666D02*
X167016666Y-128492666D01*
X167083333Y-128526000D01*
X167150000Y-128592666D01*
X167183333Y-128726000D01*
X167183333Y-128959333D01*
X167150000Y-129092666D01*
X167083333Y-129159333D01*
X167016666Y-129192666D01*
X166883333Y-129192666D01*
X166816666Y-129159333D01*
X166750000Y-129092666D01*
X166716666Y-128959333D01*
X166716666Y-128726000D01*
X166750000Y-128592666D01*
X166816666Y-128526000D01*
X166883333Y-128492666D01*
X167716666Y-128826000D02*
X167483333Y-128826000D01*
X167483333Y-129192666D02*
X167483333Y-128492666D01*
X167816666Y-128492666D01*
X168316666Y-128826000D02*
X168083333Y-128826000D01*
X168083333Y-129192666D02*
X168083333Y-128492666D01*
X168416666Y-128492666D01*
D11*
X172126000Y-86120571D02*
X171626000Y-85406285D01*
X171268857Y-86120571D02*
X171268857Y-84620571D01*
X171840285Y-84620571D01*
X171983142Y-84692000D01*
X172054571Y-84763428D01*
X172126000Y-84906285D01*
X172126000Y-85120571D01*
X172054571Y-85263428D01*
X171983142Y-85334857D01*
X171840285Y-85406285D01*
X171268857Y-85406285D01*
X173554571Y-86120571D02*
X172697428Y-86120571D01*
X173126000Y-86120571D02*
X173126000Y-84620571D01*
X172983142Y-84834857D01*
X172840285Y-84977714D01*
X172697428Y-85049142D01*
X183659142Y-96510857D02*
X183873428Y-96582285D01*
X183944857Y-96653714D01*
X184016285Y-96796571D01*
X184016285Y-97010857D01*
X183944857Y-97153714D01*
X183873428Y-97225142D01*
X183730571Y-97296571D01*
X183159142Y-97296571D01*
X183159142Y-95796571D01*
X183659142Y-95796571D01*
X183802000Y-95868000D01*
X183873428Y-95939428D01*
X183944857Y-96082285D01*
X183944857Y-96225142D01*
X183873428Y-96368000D01*
X183802000Y-96439428D01*
X183659142Y-96510857D01*
X183159142Y-96510857D01*
X174050857Y-106012000D02*
X174765142Y-106012000D01*
X173908000Y-106440571D02*
X174408000Y-104940571D01*
X174908000Y-106440571D01*
X130323428Y-121863142D02*
X130537714Y-121934571D01*
X130894857Y-121934571D01*
X131037714Y-121863142D01*
X131109142Y-121791714D01*
X131180571Y-121648857D01*
X131180571Y-121506000D01*
X131109142Y-121363142D01*
X131037714Y-121291714D01*
X130894857Y-121220285D01*
X130609142Y-121148857D01*
X130466285Y-121077428D01*
X130394857Y-121006000D01*
X130323428Y-120863142D01*
X130323428Y-120720285D01*
X130394857Y-120577428D01*
X130466285Y-120506000D01*
X130609142Y-120434571D01*
X130966285Y-120434571D01*
X131180571Y-120506000D01*
X131609142Y-120934571D02*
X132180571Y-120934571D01*
X131823428Y-120434571D02*
X131823428Y-121720285D01*
X131894857Y-121863142D01*
X132037714Y-121934571D01*
X132180571Y-121934571D01*
X133323428Y-121934571D02*
X133323428Y-121148857D01*
X133252000Y-121006000D01*
X133109142Y-120934571D01*
X132823428Y-120934571D01*
X132680571Y-121006000D01*
X133323428Y-121863142D02*
X133180571Y-121934571D01*
X132823428Y-121934571D01*
X132680571Y-121863142D01*
X132609142Y-121720285D01*
X132609142Y-121577428D01*
X132680571Y-121434571D01*
X132823428Y-121363142D01*
X133180571Y-121363142D01*
X133323428Y-121291714D01*
X134037714Y-121934571D02*
X134037714Y-120934571D01*
X134037714Y-121220285D02*
X134109142Y-121077428D01*
X134180571Y-121006000D01*
X134323428Y-120934571D01*
X134466285Y-120934571D01*
X134752000Y-120934571D02*
X135323428Y-120934571D01*
X134966285Y-120434571D02*
X134966285Y-121720285D01*
X135037714Y-121863142D01*
X135180571Y-121934571D01*
X135323428Y-121934571D01*
X194740000Y-115600142D02*
X194668571Y-115743000D01*
X194668571Y-115957285D01*
X194740000Y-116171571D01*
X194882857Y-116314428D01*
X195025714Y-116385857D01*
X195311428Y-116457285D01*
X195525714Y-116457285D01*
X195811428Y-116385857D01*
X195954285Y-116314428D01*
X196097142Y-116171571D01*
X196168571Y-115957285D01*
X196168571Y-115814428D01*
X196097142Y-115600142D01*
X196025714Y-115528714D01*
X195525714Y-115528714D01*
X195525714Y-115814428D01*
X196168571Y-114885857D02*
X194668571Y-114885857D01*
X196168571Y-114028714D01*
X194668571Y-114028714D01*
X196168571Y-113314428D02*
X194668571Y-113314428D01*
X194668571Y-112957285D01*
X194740000Y-112743000D01*
X194882857Y-112600142D01*
X195025714Y-112528714D01*
X195311428Y-112457285D01*
X195525714Y-112457285D01*
X195811428Y-112528714D01*
X195954285Y-112600142D01*
X196097142Y-112743000D01*
X196168571Y-112957285D01*
X196168571Y-113314428D01*
X192128571Y-116600142D02*
X192128571Y-115743000D01*
X193628571Y-116171571D02*
X192128571Y-116171571D01*
X192128571Y-115385857D02*
X193628571Y-114385857D01*
X192128571Y-114385857D02*
X193628571Y-115385857D01*
X189818571Y-116385857D02*
X188318571Y-116385857D01*
X189818571Y-115528714D01*
X188318571Y-115528714D01*
X189818571Y-113957285D02*
X189104285Y-114457285D01*
X189818571Y-114814428D02*
X188318571Y-114814428D01*
X188318571Y-114243000D01*
X188390000Y-114100142D01*
X188461428Y-114028714D01*
X188604285Y-113957285D01*
X188818571Y-113957285D01*
X188961428Y-114028714D01*
X189032857Y-114100142D01*
X189104285Y-114243000D01*
X189104285Y-114814428D01*
X189747142Y-113385857D02*
X189818571Y-113171571D01*
X189818571Y-112814428D01*
X189747142Y-112671571D01*
X189675714Y-112600142D01*
X189532857Y-112528714D01*
X189390000Y-112528714D01*
X189247142Y-112600142D01*
X189175714Y-112671571D01*
X189104285Y-112814428D01*
X189032857Y-113100142D01*
X188961428Y-113243000D01*
X188890000Y-113314428D01*
X188747142Y-113385857D01*
X188604285Y-113385857D01*
X188461428Y-113314428D01*
X188390000Y-113243000D01*
X188318571Y-113100142D01*
X188318571Y-112743000D01*
X188390000Y-112528714D01*
X188318571Y-112100142D02*
X188318571Y-111243000D01*
X189818571Y-111671571D02*
X188318571Y-111671571D01*
X187278571Y-116385857D02*
X185778571Y-116385857D01*
X185778571Y-115385857D02*
X185778571Y-115100142D01*
X185850000Y-114957285D01*
X185992857Y-114814428D01*
X186278571Y-114743000D01*
X186778571Y-114743000D01*
X187064285Y-114814428D01*
X187207142Y-114957285D01*
X187278571Y-115100142D01*
X187278571Y-115385857D01*
X187207142Y-115528714D01*
X187064285Y-115671571D01*
X186778571Y-115743000D01*
X186278571Y-115743000D01*
X185992857Y-115671571D01*
X185850000Y-115528714D01*
X185778571Y-115385857D01*
X183310000Y-115600142D02*
X183238571Y-115743000D01*
X183238571Y-115957285D01*
X183310000Y-116171571D01*
X183452857Y-116314428D01*
X183595714Y-116385857D01*
X183881428Y-116457285D01*
X184095714Y-116457285D01*
X184381428Y-116385857D01*
X184524285Y-116314428D01*
X184667142Y-116171571D01*
X184738571Y-115957285D01*
X184738571Y-115814428D01*
X184667142Y-115600142D01*
X184595714Y-115528714D01*
X184095714Y-115528714D01*
X184095714Y-115814428D01*
X184738571Y-114885857D02*
X183238571Y-114885857D01*
X184738571Y-114028714D01*
X183238571Y-114028714D01*
X184738571Y-113314428D02*
X183238571Y-113314428D01*
X183238571Y-112957285D01*
X183310000Y-112743000D01*
X183452857Y-112600142D01*
X183595714Y-112528714D01*
X183881428Y-112457285D01*
X184095714Y-112457285D01*
X184381428Y-112528714D01*
X184524285Y-112600142D01*
X184667142Y-112743000D01*
X184738571Y-112957285D01*
X184738571Y-113314428D01*
X182055714Y-115528714D02*
X182127142Y-115600142D01*
X182198571Y-115814428D01*
X182198571Y-115957285D01*
X182127142Y-116171571D01*
X181984285Y-116314428D01*
X181841428Y-116385857D01*
X181555714Y-116457285D01*
X181341428Y-116457285D01*
X181055714Y-116385857D01*
X180912857Y-116314428D01*
X180770000Y-116171571D01*
X180698571Y-115957285D01*
X180698571Y-115814428D01*
X180770000Y-115600142D01*
X180841428Y-115528714D01*
X182198571Y-114171571D02*
X182198571Y-114885857D01*
X180698571Y-114885857D01*
X182198571Y-113671571D02*
X180698571Y-113671571D01*
X182198571Y-112814428D02*
X181341428Y-113457285D01*
X180698571Y-112814428D02*
X181555714Y-113671571D01*
X179687428Y-87152571D02*
X179973142Y-88152571D01*
X180258857Y-87438285D01*
X180544571Y-88152571D01*
X180830285Y-87152571D01*
X181258857Y-87152571D02*
X181544571Y-88152571D01*
X181830285Y-87438285D01*
X182116000Y-88152571D01*
X182401714Y-87152571D01*
X182830285Y-87152571D02*
X183116000Y-88152571D01*
X183401714Y-87438285D01*
X183687428Y-88152571D01*
X183973142Y-87152571D01*
X184544571Y-88009714D02*
X184616000Y-88081142D01*
X184544571Y-88152571D01*
X184473142Y-88081142D01*
X184544571Y-88009714D01*
X184544571Y-88152571D01*
X185258857Y-88152571D02*
X185258857Y-87152571D01*
X185258857Y-87295428D02*
X185330285Y-87224000D01*
X185473142Y-87152571D01*
X185687428Y-87152571D01*
X185830285Y-87224000D01*
X185901714Y-87366857D01*
X185901714Y-88152571D01*
X185901714Y-87366857D02*
X185973142Y-87224000D01*
X186116000Y-87152571D01*
X186330285Y-87152571D01*
X186473142Y-87224000D01*
X186544571Y-87366857D01*
X186544571Y-88152571D01*
X187473142Y-88152571D02*
X187330285Y-88081142D01*
X187258857Y-88009714D01*
X187187428Y-87866857D01*
X187187428Y-87438285D01*
X187258857Y-87295428D01*
X187330285Y-87224000D01*
X187473142Y-87152571D01*
X187687428Y-87152571D01*
X187830285Y-87224000D01*
X187901714Y-87295428D01*
X187973142Y-87438285D01*
X187973142Y-87866857D01*
X187901714Y-88009714D01*
X187830285Y-88081142D01*
X187687428Y-88152571D01*
X187473142Y-88152571D01*
X188616000Y-88152571D02*
X188616000Y-86652571D01*
X188758857Y-87581142D02*
X189187428Y-88152571D01*
X189187428Y-87152571D02*
X188616000Y-87724000D01*
X189830285Y-88152571D02*
X189830285Y-86652571D01*
X189973142Y-87581142D02*
X190401714Y-88152571D01*
X190401714Y-87152571D02*
X189830285Y-87724000D01*
X191044571Y-88152571D02*
X191044571Y-87152571D01*
X191044571Y-86652571D02*
X190973142Y-86724000D01*
X191044571Y-86795428D01*
X191116000Y-86724000D01*
X191044571Y-86652571D01*
X191044571Y-86795428D01*
X191758857Y-88009714D02*
X191830285Y-88081142D01*
X191758857Y-88152571D01*
X191687428Y-88081142D01*
X191758857Y-88009714D01*
X191758857Y-88152571D01*
X192687428Y-88152571D02*
X192544571Y-88081142D01*
X192473142Y-88009714D01*
X192401714Y-87866857D01*
X192401714Y-87438285D01*
X192473142Y-87295428D01*
X192544571Y-87224000D01*
X192687428Y-87152571D01*
X192901714Y-87152571D01*
X193044571Y-87224000D01*
X193116000Y-87295428D01*
X193187428Y-87438285D01*
X193187428Y-87866857D01*
X193116000Y-88009714D01*
X193044571Y-88081142D01*
X192901714Y-88152571D01*
X192687428Y-88152571D01*
X193830285Y-88152571D02*
X193830285Y-87152571D01*
X193830285Y-87438285D02*
X193901714Y-87295428D01*
X193973142Y-87224000D01*
X194116000Y-87152571D01*
X194258857Y-87152571D01*
X195401714Y-87152571D02*
X195401714Y-88366857D01*
X195330285Y-88509714D01*
X195258857Y-88581142D01*
X195116000Y-88652571D01*
X194901714Y-88652571D01*
X194758857Y-88581142D01*
X195401714Y-88081142D02*
X195258857Y-88152571D01*
X194973142Y-88152571D01*
X194830285Y-88081142D01*
X194758857Y-88009714D01*
X194687428Y-87866857D01*
X194687428Y-87438285D01*
X194758857Y-87295428D01*
X194830285Y-87224000D01*
X194973142Y-87152571D01*
X195258857Y-87152571D01*
X195401714Y-87224000D01*
D12*
X102740380Y-109904761D02*
X102740380Y-109285714D01*
X103121333Y-109619047D01*
X103121333Y-109476190D01*
X103168952Y-109380952D01*
X103216571Y-109333333D01*
X103311809Y-109285714D01*
X103549904Y-109285714D01*
X103645142Y-109333333D01*
X103692761Y-109380952D01*
X103740380Y-109476190D01*
X103740380Y-109761904D01*
X103692761Y-109857142D01*
X103645142Y-109904761D01*
X102740380Y-108666666D02*
X102740380Y-108571428D01*
X102788000Y-108476190D01*
X102835619Y-108428571D01*
X102930857Y-108380952D01*
X103121333Y-108333333D01*
X103359428Y-108333333D01*
X103549904Y-108380952D01*
X103645142Y-108428571D01*
X103692761Y-108476190D01*
X103740380Y-108571428D01*
X103740380Y-108666666D01*
X103692761Y-108761904D01*
X103645142Y-108809523D01*
X103549904Y-108857142D01*
X103359428Y-108904761D01*
X103121333Y-108904761D01*
X102930857Y-108857142D01*
X102835619Y-108809523D01*
X102788000Y-108761904D01*
X102740380Y-108666666D01*
X103359428Y-107904761D02*
X103359428Y-107142857D01*
X102740380Y-106476190D02*
X102740380Y-106380952D01*
X102788000Y-106285714D01*
X102835619Y-106238095D01*
X102930857Y-106190476D01*
X103121333Y-106142857D01*
X103359428Y-106142857D01*
X103549904Y-106190476D01*
X103645142Y-106238095D01*
X103692761Y-106285714D01*
X103740380Y-106380952D01*
X103740380Y-106476190D01*
X103692761Y-106571428D01*
X103645142Y-106619047D01*
X103549904Y-106666666D01*
X103359428Y-106714285D01*
X103121333Y-106714285D01*
X102930857Y-106666666D01*
X102835619Y-106619047D01*
X102788000Y-106571428D01*
X102740380Y-106476190D01*
X102740380Y-105809523D02*
X102740380Y-105142857D01*
X103740380Y-105571428D01*
X103359428Y-104761904D02*
X103359428Y-104000000D01*
X102835619Y-103571428D02*
X102788000Y-103523809D01*
X102740380Y-103428571D01*
X102740380Y-103190476D01*
X102788000Y-103095238D01*
X102835619Y-103047619D01*
X102930857Y-103000000D01*
X103026095Y-103000000D01*
X103168952Y-103047619D01*
X103740380Y-103619047D01*
X103740380Y-103000000D01*
X102740380Y-102380952D02*
X102740380Y-102285714D01*
X102788000Y-102190476D01*
X102835619Y-102142857D01*
X102930857Y-102095238D01*
X103121333Y-102047619D01*
X103359428Y-102047619D01*
X103549904Y-102095238D01*
X103645142Y-102142857D01*
X103692761Y-102190476D01*
X103740380Y-102285714D01*
X103740380Y-102380952D01*
X103692761Y-102476190D01*
X103645142Y-102523809D01*
X103549904Y-102571428D01*
X103359428Y-102619047D01*
X103121333Y-102619047D01*
X102930857Y-102571428D01*
X102835619Y-102523809D01*
X102788000Y-102476190D01*
X102740380Y-102380952D01*
X103740380Y-101095238D02*
X103740380Y-101666666D01*
X103740380Y-101380952D02*
X102740380Y-101380952D01*
X102883238Y-101476190D01*
X102978476Y-101571428D01*
X103026095Y-101666666D01*
X103168952Y-100523809D02*
X103121333Y-100619047D01*
X103073714Y-100666666D01*
X102978476Y-100714285D01*
X102930857Y-100714285D01*
X102835619Y-100666666D01*
X102788000Y-100619047D01*
X102740380Y-100523809D01*
X102740380Y-100333333D01*
X102788000Y-100238095D01*
X102835619Y-100190476D01*
X102930857Y-100142857D01*
X102978476Y-100142857D01*
X103073714Y-100190476D01*
X103121333Y-100238095D01*
X103168952Y-100333333D01*
X103168952Y-100523809D01*
X103216571Y-100619047D01*
X103264190Y-100666666D01*
X103359428Y-100714285D01*
X103549904Y-100714285D01*
X103645142Y-100666666D01*
X103692761Y-100619047D01*
X103740380Y-100523809D01*
X103740380Y-100333333D01*
X103692761Y-100238095D01*
X103645142Y-100190476D01*
X103549904Y-100142857D01*
X103359428Y-100142857D01*
X103264190Y-100190476D01*
X103216571Y-100238095D01*
X103168952Y-100333333D01*
D11*
X101426571Y-117964285D02*
X99926571Y-117964285D01*
X100998000Y-117464285D01*
X99926571Y-116964285D01*
X101426571Y-116964285D01*
X101426571Y-116035714D02*
X101355142Y-116178571D01*
X101283714Y-116250000D01*
X101140857Y-116321428D01*
X100712285Y-116321428D01*
X100569428Y-116250000D01*
X100498000Y-116178571D01*
X100426571Y-116035714D01*
X100426571Y-115821428D01*
X100498000Y-115678571D01*
X100569428Y-115607142D01*
X100712285Y-115535714D01*
X101140857Y-115535714D01*
X101283714Y-115607142D01*
X101355142Y-115678571D01*
X101426571Y-115821428D01*
X101426571Y-116035714D01*
X101426571Y-114892857D02*
X99926571Y-114892857D01*
X100855142Y-114750000D02*
X101426571Y-114321428D01*
X100426571Y-114321428D02*
X100998000Y-114892857D01*
X101426571Y-113678571D02*
X99926571Y-113678571D01*
X100855142Y-113535714D02*
X101426571Y-113107142D01*
X100426571Y-113107142D02*
X100998000Y-113678571D01*
X101426571Y-112464285D02*
X100426571Y-112464285D01*
X99926571Y-112464285D02*
X99998000Y-112535714D01*
X100069428Y-112464285D01*
X99998000Y-112392857D01*
X99926571Y-112464285D01*
X100069428Y-112464285D01*
X101426571Y-110607142D02*
X99926571Y-110607142D01*
X99926571Y-110250000D01*
X99998000Y-110035714D01*
X100140857Y-109892857D01*
X100283714Y-109821428D01*
X100569428Y-109750000D01*
X100783714Y-109750000D01*
X101069428Y-109821428D01*
X101212285Y-109892857D01*
X101355142Y-110035714D01*
X101426571Y-110250000D01*
X101426571Y-110607142D01*
X101355142Y-108535714D02*
X101426571Y-108678571D01*
X101426571Y-108964285D01*
X101355142Y-109107142D01*
X101212285Y-109178571D01*
X100640857Y-109178571D01*
X100498000Y-109107142D01*
X100426571Y-108964285D01*
X100426571Y-108678571D01*
X100498000Y-108535714D01*
X100640857Y-108464285D01*
X100783714Y-108464285D01*
X100926571Y-109178571D01*
X100426571Y-107964285D02*
X101426571Y-107607142D01*
X100426571Y-107250000D01*
X100640857Y-105035714D02*
X100712285Y-104821428D01*
X100783714Y-104750000D01*
X100926571Y-104678571D01*
X101140857Y-104678571D01*
X101283714Y-104750000D01*
X101355142Y-104821428D01*
X101426571Y-104964285D01*
X101426571Y-105535714D01*
X99926571Y-105535714D01*
X99926571Y-105035714D01*
X99998000Y-104892857D01*
X100069428Y-104821428D01*
X100212285Y-104750000D01*
X100355142Y-104750000D01*
X100498000Y-104821428D01*
X100569428Y-104892857D01*
X100640857Y-105035714D01*
X100640857Y-105535714D01*
X101426571Y-103821428D02*
X101355142Y-103964285D01*
X101283714Y-104035714D01*
X101140857Y-104107142D01*
X100712285Y-104107142D01*
X100569428Y-104035714D01*
X100498000Y-103964285D01*
X100426571Y-103821428D01*
X100426571Y-103607142D01*
X100498000Y-103464285D01*
X100569428Y-103392857D01*
X100712285Y-103321428D01*
X101140857Y-103321428D01*
X101283714Y-103392857D01*
X101355142Y-103464285D01*
X101426571Y-103607142D01*
X101426571Y-103821428D01*
X101426571Y-102035714D02*
X100640857Y-102035714D01*
X100498000Y-102107142D01*
X100426571Y-102250000D01*
X100426571Y-102535714D01*
X100498000Y-102678571D01*
X101355142Y-102035714D02*
X101426571Y-102178571D01*
X101426571Y-102535714D01*
X101355142Y-102678571D01*
X101212285Y-102750000D01*
X101069428Y-102750000D01*
X100926571Y-102678571D01*
X100855142Y-102535714D01*
X100855142Y-102178571D01*
X100783714Y-102035714D01*
X101426571Y-101321428D02*
X100426571Y-101321428D01*
X100712285Y-101321428D02*
X100569428Y-101250000D01*
X100498000Y-101178571D01*
X100426571Y-101035714D01*
X100426571Y-100892857D01*
X101426571Y-99750000D02*
X99926571Y-99750000D01*
X101355142Y-99750000D02*
X101426571Y-99892857D01*
X101426571Y-100178571D01*
X101355142Y-100321428D01*
X101283714Y-100392857D01*
X101140857Y-100464285D01*
X100712285Y-100464285D01*
X100569428Y-100392857D01*
X100498000Y-100321428D01*
X100426571Y-100178571D01*
X100426571Y-99892857D01*
X100498000Y-99750000D01*
X100426571Y-98035714D02*
X101426571Y-97678571D01*
X100426571Y-97321428D01*
X101283714Y-96750000D02*
X101355142Y-96678571D01*
X101426571Y-96750000D01*
X101355142Y-96821428D01*
X101283714Y-96750000D01*
X101426571Y-96750000D01*
X101426571Y-94107142D02*
X101426571Y-94964285D01*
X101426571Y-94535714D02*
X99926571Y-94535714D01*
X100140857Y-94678571D01*
X100283714Y-94821428D01*
X100355142Y-94964285D01*
X101283714Y-93464285D02*
X101355142Y-93392857D01*
X101426571Y-93464285D01*
X101355142Y-93535714D01*
X101283714Y-93464285D01*
X101426571Y-93464285D01*
X99926571Y-92464285D02*
X99926571Y-92321428D01*
X99998000Y-92178571D01*
X100069428Y-92107142D01*
X100212285Y-92035714D01*
X100498000Y-91964285D01*
X100855142Y-91964285D01*
X101140857Y-92035714D01*
X101283714Y-92107142D01*
X101355142Y-92178571D01*
X101426571Y-92321428D01*
X101426571Y-92464285D01*
X101355142Y-92607142D01*
X101283714Y-92678571D01*
X101140857Y-92750000D01*
X100855142Y-92821428D01*
X100498000Y-92821428D01*
X100212285Y-92750000D01*
X100069428Y-92678571D01*
X99998000Y-92607142D01*
X99926571Y-92464285D01*
X178833142Y-124621428D02*
X178833142Y-123478571D01*
X178833142Y-127161428D02*
X178833142Y-126018571D01*
X179404571Y-126590000D02*
X178261714Y-126590000D01*
D13*
G04 #@! TO.C,U1*
X153485000Y-103365000D02*
X152460000Y-103365000D01*
X163835000Y-102365000D02*
X162760000Y-102365000D01*
X163835000Y-112715000D02*
X162760000Y-112715000D01*
X153485000Y-112715000D02*
X154560000Y-112715000D01*
X153485000Y-102365000D02*
X154560000Y-102365000D01*
X153485000Y-112715000D02*
X153485000Y-111640000D01*
X163835000Y-112715000D02*
X163835000Y-111640000D01*
X163835000Y-102365000D02*
X163835000Y-103440000D01*
X153485000Y-102365000D02*
X153485000Y-103365000D01*
D14*
G04 #@! TO.C,C1*
X143930000Y-103953733D02*
X143930000Y-104296267D01*
X142910000Y-103953733D02*
X142910000Y-104296267D01*
G04 #@! TO.C,C2*
X116028700Y-125917231D02*
X115686166Y-125917231D01*
X116028700Y-126937231D02*
X115686166Y-126937231D01*
G04 #@! TO.C,C3*
X143930000Y-108045267D02*
X143930000Y-107702733D01*
X142910000Y-108045267D02*
X142910000Y-107702733D01*
G04 #@! TO.C,C4*
X116028700Y-120937231D02*
X115686166Y-120937231D01*
X116028700Y-119917231D02*
X115686166Y-119917231D01*
G04 #@! TO.C,C9*
X168056252Y-121562000D02*
X167533748Y-121562000D01*
X168056252Y-122982000D02*
X167533748Y-122982000D01*
G04 #@! TO.C,D1*
X151000000Y-128020000D02*
X146000000Y-128020000D01*
X144900000Y-123720000D02*
X144900000Y-122620000D01*
X144900000Y-122620000D02*
X151000000Y-122620000D01*
G04 #@! TO.C,J1*
X164502000Y-80048000D02*
X164502000Y-80308000D01*
X164502000Y-82588000D02*
X164502000Y-84358000D01*
X164502000Y-84358000D02*
X164122000Y-84358000D01*
X156882000Y-84358000D02*
X156882000Y-82588000D01*
X156882000Y-80308000D02*
X156882000Y-80048000D01*
X156882000Y-84358000D02*
X157262000Y-84358000D01*
G04 #@! TO.C,J2*
X180154000Y-118749000D02*
X180154000Y-117639000D01*
X180154000Y-117639000D02*
X181484000Y-117639000D01*
X180154000Y-128839000D02*
X190434000Y-128839000D01*
X190434000Y-128839000D02*
X190434000Y-120209000D01*
X180154000Y-120209000D02*
X190434000Y-120209000D01*
X180154000Y-128839000D02*
X180154000Y-120209000D01*
X187834000Y-128839000D02*
X187834000Y-120209000D01*
X185294000Y-128839000D02*
X185294000Y-120209000D01*
X182754000Y-128839000D02*
X182754000Y-120209000D01*
X189464000Y-120209000D02*
X189464000Y-119799000D01*
X188744000Y-120209000D02*
X188744000Y-119799000D01*
X186924000Y-120209000D02*
X186924000Y-119799000D01*
X186204000Y-120209000D02*
X186204000Y-119799000D01*
X184384000Y-120209000D02*
X184384000Y-119799000D01*
X183664000Y-120209000D02*
X183664000Y-119799000D01*
X181844000Y-120209000D02*
X181844000Y-119859000D01*
X181124000Y-120209000D02*
X181124000Y-119859000D01*
X182635900Y-128839000D02*
X182635900Y-120209000D01*
X182517805Y-128839000D02*
X182517805Y-120209000D01*
X182399710Y-128839000D02*
X182399710Y-120209000D01*
X182281615Y-128839000D02*
X182281615Y-120209000D01*
X182163520Y-128839000D02*
X182163520Y-120209000D01*
X182045425Y-128839000D02*
X182045425Y-120209000D01*
X181927330Y-128839000D02*
X181927330Y-120209000D01*
X181809235Y-128839000D02*
X181809235Y-120209000D01*
X181691140Y-128839000D02*
X181691140Y-120209000D01*
X181573045Y-128839000D02*
X181573045Y-120209000D01*
X181454950Y-128839000D02*
X181454950Y-120209000D01*
X181336855Y-128839000D02*
X181336855Y-120209000D01*
X181218760Y-128839000D02*
X181218760Y-120209000D01*
X181100665Y-128839000D02*
X181100665Y-120209000D01*
X180982570Y-128839000D02*
X180982570Y-120209000D01*
X180864475Y-128839000D02*
X180864475Y-120209000D01*
X180746380Y-128839000D02*
X180746380Y-120209000D01*
X180628285Y-128839000D02*
X180628285Y-120209000D01*
X180510190Y-128839000D02*
X180510190Y-120209000D01*
X180392095Y-128839000D02*
X180392095Y-120209000D01*
X180274000Y-128839000D02*
X180274000Y-120209000D01*
G04 #@! TO.C,J3*
X143360000Y-93570000D02*
X143360000Y-92240000D01*
X143360000Y-92240000D02*
X144690000Y-92240000D01*
X145960000Y-92240000D02*
X153640000Y-92240000D01*
X153640000Y-94900000D02*
X153640000Y-92240000D01*
X145960000Y-94900000D02*
X153640000Y-94900000D01*
X145960000Y-94900000D02*
X145960000Y-92240000D01*
G04 #@! TO.C,J5*
X191620000Y-118749000D02*
X191620000Y-117639000D01*
X191620000Y-117639000D02*
X192950000Y-117639000D01*
X191620000Y-128839000D02*
X196820000Y-128839000D01*
X196820000Y-128839000D02*
X196820000Y-120209000D01*
X191620000Y-120209000D02*
X196820000Y-120209000D01*
X191620000Y-128839000D02*
X191620000Y-120209000D01*
X194220000Y-128839000D02*
X194220000Y-120209000D01*
X195850000Y-120209000D02*
X195850000Y-119799000D01*
X195130000Y-120209000D02*
X195130000Y-119799000D01*
X193310000Y-120209000D02*
X193310000Y-119859000D01*
X192590000Y-120209000D02*
X192590000Y-119859000D01*
X194101900Y-128839000D02*
X194101900Y-120209000D01*
X193983805Y-128839000D02*
X193983805Y-120209000D01*
X193865710Y-128839000D02*
X193865710Y-120209000D01*
X193747615Y-128839000D02*
X193747615Y-120209000D01*
X193629520Y-128839000D02*
X193629520Y-120209000D01*
X193511425Y-128839000D02*
X193511425Y-120209000D01*
X193393330Y-128839000D02*
X193393330Y-120209000D01*
X193275235Y-128839000D02*
X193275235Y-120209000D01*
X193157140Y-128839000D02*
X193157140Y-120209000D01*
X193039045Y-128839000D02*
X193039045Y-120209000D01*
X192920950Y-128839000D02*
X192920950Y-120209000D01*
X192802855Y-128839000D02*
X192802855Y-120209000D01*
X192684760Y-128839000D02*
X192684760Y-120209000D01*
X192566665Y-128839000D02*
X192566665Y-120209000D01*
X192448570Y-128839000D02*
X192448570Y-120209000D01*
X192330475Y-128839000D02*
X192330475Y-120209000D01*
X192212380Y-128839000D02*
X192212380Y-120209000D01*
X192094285Y-128839000D02*
X192094285Y-120209000D01*
X191976190Y-128839000D02*
X191976190Y-120209000D01*
X191858095Y-128839000D02*
X191858095Y-120209000D01*
X191740000Y-128839000D02*
X191740000Y-120209000D01*
G04 #@! TO.C,J6*
X153640000Y-89760000D02*
X153640000Y-90870000D01*
X153640000Y-90870000D02*
X152310000Y-90870000D01*
X153640000Y-77130000D02*
X102720000Y-77130000D01*
X102720000Y-77130000D02*
X102720000Y-85760000D01*
X153640000Y-85760000D02*
X102720000Y-85760000D01*
X153640000Y-77130000D02*
X153640000Y-85760000D01*
X105320000Y-77130000D02*
X105320000Y-85760000D01*
X107860000Y-77130000D02*
X107860000Y-85760000D01*
X110400000Y-77130000D02*
X110400000Y-85760000D01*
X112940000Y-77130000D02*
X112940000Y-85760000D01*
X115480000Y-77130000D02*
X115480000Y-85760000D01*
X118020000Y-77130000D02*
X118020000Y-85760000D01*
X120560000Y-77130000D02*
X120560000Y-85760000D01*
X123100000Y-77130000D02*
X123100000Y-85760000D01*
X125640000Y-77130000D02*
X125640000Y-85760000D01*
X128180000Y-77130000D02*
X128180000Y-85760000D01*
X130720000Y-77130000D02*
X130720000Y-85760000D01*
X133260000Y-77130000D02*
X133260000Y-85760000D01*
X135800000Y-77130000D02*
X135800000Y-85760000D01*
X138340000Y-77130000D02*
X138340000Y-85760000D01*
X140880000Y-77130000D02*
X140880000Y-85760000D01*
X143420000Y-77130000D02*
X143420000Y-85760000D01*
X145960000Y-77130000D02*
X145960000Y-85760000D01*
X148500000Y-77130000D02*
X148500000Y-85760000D01*
X151040000Y-77130000D02*
X151040000Y-85760000D01*
X103690000Y-88270000D02*
X103690000Y-88710000D01*
X103690000Y-85760000D02*
X103690000Y-86170000D01*
X104410000Y-88270000D02*
X104410000Y-88710000D01*
X104410000Y-85760000D02*
X104410000Y-86170000D01*
X106230000Y-88270000D02*
X106230000Y-88710000D01*
X106230000Y-85760000D02*
X106230000Y-86170000D01*
X106950000Y-88270000D02*
X106950000Y-88710000D01*
X106950000Y-85760000D02*
X106950000Y-86170000D01*
X108770000Y-88270000D02*
X108770000Y-88710000D01*
X108770000Y-85760000D02*
X108770000Y-86170000D01*
X109490000Y-88270000D02*
X109490000Y-88710000D01*
X109490000Y-85760000D02*
X109490000Y-86170000D01*
X111310000Y-88270000D02*
X111310000Y-88710000D01*
X111310000Y-85760000D02*
X111310000Y-86170000D01*
X112030000Y-88270000D02*
X112030000Y-88710000D01*
X112030000Y-85760000D02*
X112030000Y-86170000D01*
X113850000Y-88270000D02*
X113850000Y-88710000D01*
X113850000Y-85760000D02*
X113850000Y-86170000D01*
X114570000Y-88270000D02*
X114570000Y-88710000D01*
X114570000Y-85760000D02*
X114570000Y-86170000D01*
X116390000Y-88270000D02*
X116390000Y-88710000D01*
X116390000Y-85760000D02*
X116390000Y-86170000D01*
X117110000Y-88270000D02*
X117110000Y-88710000D01*
X117110000Y-85760000D02*
X117110000Y-86170000D01*
X118930000Y-88270000D02*
X118930000Y-88710000D01*
X118930000Y-85760000D02*
X118930000Y-86170000D01*
X119650000Y-88270000D02*
X119650000Y-88710000D01*
X119650000Y-85760000D02*
X119650000Y-86170000D01*
X121470000Y-88270000D02*
X121470000Y-88710000D01*
X121470000Y-85760000D02*
X121470000Y-86170000D01*
X122190000Y-88270000D02*
X122190000Y-88710000D01*
X122190000Y-85760000D02*
X122190000Y-86170000D01*
X124010000Y-88270000D02*
X124010000Y-88710000D01*
X124010000Y-85760000D02*
X124010000Y-86170000D01*
X124730000Y-88270000D02*
X124730000Y-88710000D01*
X124730000Y-85760000D02*
X124730000Y-86170000D01*
X126550000Y-88270000D02*
X126550000Y-88710000D01*
X126550000Y-85760000D02*
X126550000Y-86170000D01*
X127270000Y-88270000D02*
X127270000Y-88710000D01*
X127270000Y-85760000D02*
X127270000Y-86170000D01*
X129090000Y-88270000D02*
X129090000Y-88710000D01*
X129090000Y-85760000D02*
X129090000Y-86170000D01*
X129810000Y-88270000D02*
X129810000Y-88710000D01*
X129810000Y-85760000D02*
X129810000Y-86170000D01*
X131630000Y-88270000D02*
X131630000Y-88710000D01*
X131630000Y-85760000D02*
X131630000Y-86170000D01*
X132350000Y-88270000D02*
X132350000Y-88710000D01*
X132350000Y-85760000D02*
X132350000Y-86170000D01*
X134170000Y-88270000D02*
X134170000Y-88710000D01*
X134170000Y-85760000D02*
X134170000Y-86170000D01*
X134890000Y-88270000D02*
X134890000Y-88710000D01*
X134890000Y-85760000D02*
X134890000Y-86170000D01*
X136710000Y-88270000D02*
X136710000Y-88710000D01*
X136710000Y-85760000D02*
X136710000Y-86170000D01*
X137430000Y-88270000D02*
X137430000Y-88710000D01*
X137430000Y-85760000D02*
X137430000Y-86170000D01*
X139250000Y-88270000D02*
X139250000Y-88710000D01*
X139250000Y-85760000D02*
X139250000Y-86170000D01*
X139970000Y-88270000D02*
X139970000Y-88710000D01*
X139970000Y-85760000D02*
X139970000Y-86170000D01*
X141790000Y-88270000D02*
X141790000Y-88710000D01*
X141790000Y-85760000D02*
X141790000Y-86170000D01*
X142510000Y-88270000D02*
X142510000Y-88710000D01*
X142510000Y-85760000D02*
X142510000Y-86170000D01*
X144330000Y-88270000D02*
X144330000Y-88710000D01*
X144330000Y-85760000D02*
X144330000Y-86170000D01*
X145050000Y-88270000D02*
X145050000Y-88710000D01*
X145050000Y-85760000D02*
X145050000Y-86170000D01*
X146870000Y-88270000D02*
X146870000Y-88710000D01*
X146870000Y-85760000D02*
X146870000Y-86170000D01*
X147590000Y-88270000D02*
X147590000Y-88710000D01*
X147590000Y-85760000D02*
X147590000Y-86170000D01*
X149410000Y-88270000D02*
X149410000Y-88710000D01*
X149410000Y-85760000D02*
X149410000Y-86170000D01*
X150130000Y-88270000D02*
X150130000Y-88710000D01*
X150130000Y-85760000D02*
X150130000Y-86170000D01*
X151950000Y-88270000D02*
X151950000Y-88650000D01*
X151950000Y-85760000D02*
X151950000Y-86170000D01*
X152670000Y-88270000D02*
X152670000Y-88650000D01*
X152670000Y-85760000D02*
X152670000Y-86170000D01*
X151158100Y-77130000D02*
X151158100Y-85760000D01*
X151276195Y-77130000D02*
X151276195Y-85760000D01*
X151394290Y-77130000D02*
X151394290Y-85760000D01*
X151512385Y-77130000D02*
X151512385Y-85760000D01*
X151630480Y-77130000D02*
X151630480Y-85760000D01*
X151748575Y-77130000D02*
X151748575Y-85760000D01*
X151866670Y-77130000D02*
X151866670Y-85760000D01*
X151984765Y-77130000D02*
X151984765Y-85760000D01*
X152102860Y-77130000D02*
X152102860Y-85760000D01*
X152220955Y-77130000D02*
X152220955Y-85760000D01*
X152339050Y-77130000D02*
X152339050Y-85760000D01*
X152457145Y-77130000D02*
X152457145Y-85760000D01*
X152575240Y-77130000D02*
X152575240Y-85760000D01*
X152693335Y-77130000D02*
X152693335Y-85760000D01*
X152811430Y-77130000D02*
X152811430Y-85760000D01*
X152929525Y-77130000D02*
X152929525Y-85760000D01*
X153047620Y-77130000D02*
X153047620Y-85760000D01*
X153165715Y-77130000D02*
X153165715Y-85760000D01*
X153283810Y-77130000D02*
X153283810Y-85760000D01*
X153401905Y-77130000D02*
X153401905Y-85760000D01*
X153520000Y-77130000D02*
X153520000Y-85760000D01*
G04 #@! TO.C,Q1*
X160690000Y-128170000D02*
X159230000Y-128170000D01*
X160690000Y-125010000D02*
X157530000Y-125010000D01*
X160690000Y-125010000D02*
X160690000Y-125940000D01*
X160690000Y-128170000D02*
X160690000Y-127240000D01*
G04 #@! TO.C,R3*
X155410000Y-126851252D02*
X155410000Y-126328748D01*
X156830000Y-126851252D02*
X156830000Y-126328748D01*
G04 #@! TO.C,R4*
X142411252Y-122324000D02*
X141888748Y-122324000D01*
X142411252Y-123744000D02*
X141888748Y-123744000D01*
G04 #@! TO.C,R5*
X142411252Y-126030000D02*
X141888748Y-126030000D01*
X142411252Y-124610000D02*
X141888748Y-124610000D01*
G04 #@! TO.C,R6*
X142411252Y-126896000D02*
X141888748Y-126896000D01*
X142411252Y-128316000D02*
X141888748Y-128316000D01*
G04 #@! TO.C,R7*
X157391200Y-88285052D02*
X157391200Y-87762548D01*
X158811200Y-88285052D02*
X158811200Y-87762548D01*
G04 #@! TO.C,R8*
X162926000Y-88289252D02*
X162926000Y-87766748D01*
X161506000Y-88289252D02*
X161506000Y-87766748D01*
G04 #@! TO.C,R9*
X159474000Y-88289252D02*
X159474000Y-87766748D01*
X160894000Y-88289252D02*
X160894000Y-87766748D01*
G04 #@! TO.C,SW3*
X119374000Y-96350000D02*
X119374000Y-98410000D01*
X114634000Y-96350000D02*
X114634000Y-98410000D01*
X114634000Y-95010000D02*
X114634000Y-95410000D01*
X119374000Y-95010000D02*
X114634000Y-95010000D01*
X119374000Y-95010000D02*
X119374000Y-95410000D01*
X114634000Y-99750000D02*
X114634000Y-99350000D01*
X119374000Y-99750000D02*
X119374000Y-99350000D01*
X119374000Y-99750000D02*
X114634000Y-99750000D01*
G04 #@! TO.C,SW4*
X130426000Y-126374000D02*
X130426000Y-124314000D01*
X135166000Y-126374000D02*
X135166000Y-124314000D01*
X135166000Y-127714000D02*
X135166000Y-127314000D01*
X130426000Y-127714000D02*
X135166000Y-127714000D01*
X130426000Y-127714000D02*
X130426000Y-127314000D01*
X135166000Y-122974000D02*
X135166000Y-123374000D01*
X130426000Y-122974000D02*
X130426000Y-123374000D01*
X130426000Y-122974000D02*
X135166000Y-122974000D01*
G04 #@! TO.C,SW5*
X111754000Y-102630000D02*
X111754000Y-107370000D01*
X111754000Y-102630000D02*
X111354000Y-102630000D01*
X111754000Y-107370000D02*
X111354000Y-107370000D01*
X107014000Y-102630000D02*
X107414000Y-102630000D01*
X107014000Y-102630000D02*
X107014000Y-107370000D01*
X107014000Y-107370000D02*
X107414000Y-107370000D01*
X108354000Y-107370000D02*
X110414000Y-107370000D01*
X108354000Y-102630000D02*
X110414000Y-102630000D01*
G04 #@! TO.C,SW6*
X170722000Y-83668000D02*
X174122000Y-83668000D01*
X169082000Y-83668000D02*
X169622000Y-83668000D01*
X176282000Y-86498000D02*
X176282000Y-87008000D01*
X175762000Y-87008000D02*
X176282000Y-87008000D01*
X175762000Y-86498000D02*
X175762000Y-87008000D01*
X175222000Y-83668000D02*
X175762000Y-83668000D01*
X168562000Y-86498000D02*
X168562000Y-87008000D01*
X169082000Y-86498000D02*
X169082000Y-87008000D01*
X175762000Y-83668000D02*
X175762000Y-83898000D01*
X168562000Y-79998000D02*
X168562000Y-83898000D01*
X168562000Y-87008000D02*
X169082000Y-87008000D01*
X176282000Y-79998000D02*
X176282000Y-83898000D01*
X168562000Y-79998000D02*
X176282000Y-79998000D01*
X169082000Y-83668000D02*
X169082000Y-83898000D01*
G04 #@! TO.C,SW7*
X123594000Y-102630000D02*
X125654000Y-102630000D01*
X123594000Y-107370000D02*
X125654000Y-107370000D01*
X122254000Y-107370000D02*
X122654000Y-107370000D01*
X122254000Y-102630000D02*
X122254000Y-107370000D01*
X122254000Y-102630000D02*
X122654000Y-102630000D01*
X126994000Y-107370000D02*
X126594000Y-107370000D01*
X126994000Y-102630000D02*
X126594000Y-102630000D01*
X126994000Y-102630000D02*
X126994000Y-107370000D01*
G04 #@! TO.C,SW8*
X176734000Y-111918000D02*
X171994000Y-111918000D01*
X176734000Y-111918000D02*
X176734000Y-111518000D01*
X171994000Y-111918000D02*
X171994000Y-111518000D01*
X176734000Y-107178000D02*
X176734000Y-107578000D01*
X176734000Y-107178000D02*
X171994000Y-107178000D01*
X171994000Y-107178000D02*
X171994000Y-107578000D01*
X171994000Y-108518000D02*
X171994000Y-110578000D01*
X176734000Y-108518000D02*
X176734000Y-110578000D01*
G04 #@! TO.C,SW9*
X114634000Y-110250000D02*
X119374000Y-110250000D01*
X114634000Y-110250000D02*
X114634000Y-110650000D01*
X119374000Y-110250000D02*
X119374000Y-110650000D01*
X114634000Y-114990000D02*
X114634000Y-114590000D01*
X114634000Y-114990000D02*
X119374000Y-114990000D01*
X119374000Y-114990000D02*
X119374000Y-114590000D01*
X119374000Y-113650000D02*
X119374000Y-111590000D01*
X114634000Y-113650000D02*
X114634000Y-111590000D01*
G04 #@! TO.C,SW10*
X185878000Y-99422000D02*
X185878000Y-101482000D01*
X181138000Y-99422000D02*
X181138000Y-101482000D01*
X181138000Y-98082000D02*
X181138000Y-98482000D01*
X185878000Y-98082000D02*
X181138000Y-98082000D01*
X185878000Y-98082000D02*
X185878000Y-98482000D01*
X181138000Y-102822000D02*
X181138000Y-102422000D01*
X185878000Y-102822000D02*
X185878000Y-102422000D01*
X185878000Y-102822000D02*
X181138000Y-102822000D01*
G04 #@! TO.C,Y1*
X144160000Y-101599000D02*
X144160000Y-108849000D01*
X147760000Y-101599000D02*
X144160000Y-101599000D01*
X147760000Y-108849000D02*
X147760000Y-101599000D01*
G04 #@! TO.C,C5*
X165233733Y-102204000D02*
X165576267Y-102204000D01*
X165233733Y-103224000D02*
X165576267Y-103224000D01*
G04 #@! TO.C,C6*
X155134267Y-114904000D02*
X154791733Y-114904000D01*
X155134267Y-115924000D02*
X154791733Y-115924000D01*
G04 #@! TO.C,C7*
X162500267Y-114396000D02*
X162157733Y-114396000D01*
X162500267Y-115416000D02*
X162157733Y-115416000D01*
G04 #@! TO.C,C8*
X154170733Y-99664000D02*
X154513267Y-99664000D01*
X154170733Y-100684000D02*
X154513267Y-100684000D01*
G04 #@! TO.C,C10*
X150788000Y-109884267D02*
X150788000Y-109541733D01*
X149768000Y-109884267D02*
X149768000Y-109541733D01*
G04 #@! TO.C,C11*
X150788000Y-106465733D02*
X150788000Y-106808267D01*
X149768000Y-106465733D02*
X149768000Y-106808267D01*
G04 #@! TO.C,R1*
X140370000Y-106046267D02*
X140370000Y-105703733D01*
X141390000Y-106046267D02*
X141390000Y-105703733D01*
G04 #@! TO.C,R2*
X113222433Y-123230964D02*
X113222433Y-123573498D01*
X114242433Y-123230964D02*
X114242433Y-123573498D01*
G04 #@! TO.C,SW3*
D13*
X115670666Y-97784761D02*
X115813523Y-97832380D01*
X116051619Y-97832380D01*
X116146857Y-97784761D01*
X116194476Y-97737142D01*
X116242095Y-97641904D01*
X116242095Y-97546666D01*
X116194476Y-97451428D01*
X116146857Y-97403809D01*
X116051619Y-97356190D01*
X115861142Y-97308571D01*
X115765904Y-97260952D01*
X115718285Y-97213333D01*
X115670666Y-97118095D01*
X115670666Y-97022857D01*
X115718285Y-96927619D01*
X115765904Y-96880000D01*
X115861142Y-96832380D01*
X116099238Y-96832380D01*
X116242095Y-96880000D01*
X116575428Y-96832380D02*
X116813523Y-97832380D01*
X117004000Y-97118095D01*
X117194476Y-97832380D01*
X117432571Y-96832380D01*
X117718285Y-96832380D02*
X118337333Y-96832380D01*
X118004000Y-97213333D01*
X118146857Y-97213333D01*
X118242095Y-97260952D01*
X118289714Y-97308571D01*
X118337333Y-97403809D01*
X118337333Y-97641904D01*
X118289714Y-97737142D01*
X118242095Y-97784761D01*
X118146857Y-97832380D01*
X117861142Y-97832380D01*
X117765904Y-97784761D01*
X117718285Y-97737142D01*
G04 #@! TO.C,SW4*
X131462666Y-125619761D02*
X131605523Y-125667380D01*
X131843619Y-125667380D01*
X131938857Y-125619761D01*
X131986476Y-125572142D01*
X132034095Y-125476904D01*
X132034095Y-125381666D01*
X131986476Y-125286428D01*
X131938857Y-125238809D01*
X131843619Y-125191190D01*
X131653142Y-125143571D01*
X131557904Y-125095952D01*
X131510285Y-125048333D01*
X131462666Y-124953095D01*
X131462666Y-124857857D01*
X131510285Y-124762619D01*
X131557904Y-124715000D01*
X131653142Y-124667380D01*
X131891238Y-124667380D01*
X132034095Y-124715000D01*
X132367428Y-124667380D02*
X132605523Y-125667380D01*
X132796000Y-124953095D01*
X132986476Y-125667380D01*
X133224571Y-124667380D01*
X134034095Y-125000714D02*
X134034095Y-125667380D01*
X133796000Y-124619761D02*
X133557904Y-125334047D01*
X134176952Y-125334047D01*
G04 #@! TO.C,SW5*
X108050666Y-105404761D02*
X108193523Y-105452380D01*
X108431619Y-105452380D01*
X108526857Y-105404761D01*
X108574476Y-105357142D01*
X108622095Y-105261904D01*
X108622095Y-105166666D01*
X108574476Y-105071428D01*
X108526857Y-105023809D01*
X108431619Y-104976190D01*
X108241142Y-104928571D01*
X108145904Y-104880952D01*
X108098285Y-104833333D01*
X108050666Y-104738095D01*
X108050666Y-104642857D01*
X108098285Y-104547619D01*
X108145904Y-104500000D01*
X108241142Y-104452380D01*
X108479238Y-104452380D01*
X108622095Y-104500000D01*
X108955428Y-104452380D02*
X109193523Y-105452380D01*
X109384000Y-104738095D01*
X109574476Y-105452380D01*
X109812571Y-104452380D01*
X110669714Y-104452380D02*
X110193523Y-104452380D01*
X110145904Y-104928571D01*
X110193523Y-104880952D01*
X110288761Y-104833333D01*
X110526857Y-104833333D01*
X110622095Y-104880952D01*
X110669714Y-104928571D01*
X110717333Y-105023809D01*
X110717333Y-105261904D01*
X110669714Y-105357142D01*
X110622095Y-105404761D01*
X110526857Y-105452380D01*
X110288761Y-105452380D01*
X110193523Y-105404761D01*
X110145904Y-105357142D01*
G04 #@! TO.C,SW7*
X123290666Y-105404761D02*
X123433523Y-105452380D01*
X123671619Y-105452380D01*
X123766857Y-105404761D01*
X123814476Y-105357142D01*
X123862095Y-105261904D01*
X123862095Y-105166666D01*
X123814476Y-105071428D01*
X123766857Y-105023809D01*
X123671619Y-104976190D01*
X123481142Y-104928571D01*
X123385904Y-104880952D01*
X123338285Y-104833333D01*
X123290666Y-104738095D01*
X123290666Y-104642857D01*
X123338285Y-104547619D01*
X123385904Y-104500000D01*
X123481142Y-104452380D01*
X123719238Y-104452380D01*
X123862095Y-104500000D01*
X124195428Y-104452380D02*
X124433523Y-105452380D01*
X124624000Y-104738095D01*
X124814476Y-105452380D01*
X125052571Y-104452380D01*
X125338285Y-104452380D02*
X126004952Y-104452380D01*
X125576380Y-105452380D01*
G04 #@! TO.C,SW8*
X173030666Y-109952761D02*
X173173523Y-110000380D01*
X173411619Y-110000380D01*
X173506857Y-109952761D01*
X173554476Y-109905142D01*
X173602095Y-109809904D01*
X173602095Y-109714666D01*
X173554476Y-109619428D01*
X173506857Y-109571809D01*
X173411619Y-109524190D01*
X173221142Y-109476571D01*
X173125904Y-109428952D01*
X173078285Y-109381333D01*
X173030666Y-109286095D01*
X173030666Y-109190857D01*
X173078285Y-109095619D01*
X173125904Y-109048000D01*
X173221142Y-109000380D01*
X173459238Y-109000380D01*
X173602095Y-109048000D01*
X173935428Y-109000380D02*
X174173523Y-110000380D01*
X174364000Y-109286095D01*
X174554476Y-110000380D01*
X174792571Y-109000380D01*
X175316380Y-109428952D02*
X175221142Y-109381333D01*
X175173523Y-109333714D01*
X175125904Y-109238476D01*
X175125904Y-109190857D01*
X175173523Y-109095619D01*
X175221142Y-109048000D01*
X175316380Y-109000380D01*
X175506857Y-109000380D01*
X175602095Y-109048000D01*
X175649714Y-109095619D01*
X175697333Y-109190857D01*
X175697333Y-109238476D01*
X175649714Y-109333714D01*
X175602095Y-109381333D01*
X175506857Y-109428952D01*
X175316380Y-109428952D01*
X175221142Y-109476571D01*
X175173523Y-109524190D01*
X175125904Y-109619428D01*
X175125904Y-109809904D01*
X175173523Y-109905142D01*
X175221142Y-109952761D01*
X175316380Y-110000380D01*
X175506857Y-110000380D01*
X175602095Y-109952761D01*
X175649714Y-109905142D01*
X175697333Y-109809904D01*
X175697333Y-109619428D01*
X175649714Y-109524190D01*
X175602095Y-109476571D01*
X175506857Y-109428952D01*
G04 #@! TO.C,SW9*
X115670666Y-113024761D02*
X115813523Y-113072380D01*
X116051619Y-113072380D01*
X116146857Y-113024761D01*
X116194476Y-112977142D01*
X116242095Y-112881904D01*
X116242095Y-112786666D01*
X116194476Y-112691428D01*
X116146857Y-112643809D01*
X116051619Y-112596190D01*
X115861142Y-112548571D01*
X115765904Y-112500952D01*
X115718285Y-112453333D01*
X115670666Y-112358095D01*
X115670666Y-112262857D01*
X115718285Y-112167619D01*
X115765904Y-112120000D01*
X115861142Y-112072380D01*
X116099238Y-112072380D01*
X116242095Y-112120000D01*
X116575428Y-112072380D02*
X116813523Y-113072380D01*
X117004000Y-112358095D01*
X117194476Y-113072380D01*
X117432571Y-112072380D01*
X117861142Y-113072380D02*
X118051619Y-113072380D01*
X118146857Y-113024761D01*
X118194476Y-112977142D01*
X118289714Y-112834285D01*
X118337333Y-112643809D01*
X118337333Y-112262857D01*
X118289714Y-112167619D01*
X118242095Y-112120000D01*
X118146857Y-112072380D01*
X117956380Y-112072380D01*
X117861142Y-112120000D01*
X117813523Y-112167619D01*
X117765904Y-112262857D01*
X117765904Y-112500952D01*
X117813523Y-112596190D01*
X117861142Y-112643809D01*
X117956380Y-112691428D01*
X118146857Y-112691428D01*
X118242095Y-112643809D01*
X118289714Y-112596190D01*
X118337333Y-112500952D01*
G04 #@! TO.C,SW10*
X181698476Y-100856761D02*
X181841333Y-100904380D01*
X182079428Y-100904380D01*
X182174666Y-100856761D01*
X182222285Y-100809142D01*
X182269904Y-100713904D01*
X182269904Y-100618666D01*
X182222285Y-100523428D01*
X182174666Y-100475809D01*
X182079428Y-100428190D01*
X181888952Y-100380571D01*
X181793714Y-100332952D01*
X181746095Y-100285333D01*
X181698476Y-100190095D01*
X181698476Y-100094857D01*
X181746095Y-99999619D01*
X181793714Y-99952000D01*
X181888952Y-99904380D01*
X182127047Y-99904380D01*
X182269904Y-99952000D01*
X182603238Y-99904380D02*
X182841333Y-100904380D01*
X183031809Y-100190095D01*
X183222285Y-100904380D01*
X183460380Y-99904380D01*
X184365142Y-100904380D02*
X183793714Y-100904380D01*
X184079428Y-100904380D02*
X184079428Y-99904380D01*
X183984190Y-100047238D01*
X183888952Y-100142476D01*
X183793714Y-100190095D01*
X184984190Y-99904380D02*
X185079428Y-99904380D01*
X185174666Y-99952000D01*
X185222285Y-99999619D01*
X185269904Y-100094857D01*
X185317523Y-100285333D01*
X185317523Y-100523428D01*
X185269904Y-100713904D01*
X185222285Y-100809142D01*
X185174666Y-100856761D01*
X185079428Y-100904380D01*
X184984190Y-100904380D01*
X184888952Y-100856761D01*
X184841333Y-100809142D01*
X184793714Y-100713904D01*
X184746095Y-100523428D01*
X184746095Y-100285333D01*
X184793714Y-100094857D01*
X184841333Y-99999619D01*
X184888952Y-99952000D01*
X184984190Y-99904380D01*
G04 #@! TD*
M02*
