M48
;DRILL file {KiCad 5.0.0} date Mon Jul 30 23:26:31 2018
;FORMAT={-:-/ absolute / inch / decimal}
FMAT,2
INCH,TZ
T1C0.0118
T2C0.0197
T3C0.0390
T4C0.0394
T5C0.0512
%
G90
G05
M72
T1
X4.2475Y-4.0539
X4.3665Y-4.1339
X4.4765Y-4.7439
X4.4765Y-4.9775
X4.5665Y-3.3339
X4.6165Y-3.8939
X4.667Y-3.6668
X4.6865Y-4.4939
X4.7465Y-4.3039
X4.8465Y-4.0539
X4.8606Y-3.6998
X4.9665Y-4.1339
X5.2865Y-4.0807
X5.3465Y-4.3739
X5.3695Y-4.9429
X5.4065Y-4.7939
X5.4785Y-3.7019
X5.5085Y-3.7329
X5.5665Y-4.6039
X5.5965Y-4.1739
X5.6705Y-4.7839
X5.6835Y-4.7407
X5.6865Y-3.9539
X5.7082Y-4.7141
X5.8465Y-4.3739
X5.8465Y-4.4339
X5.8665Y-4.0439
X5.8865Y-4.3139
X5.9565Y-4.5839
X5.9665Y-4.0739
X5.9665Y-4.2309
X5.9665Y-4.2739
X5.9665Y-4.3539
X6.0465Y-4.5839
X6.056Y-4.4414
X6.0665Y-4.1539
X6.0697Y-4.3901
X6.0765Y-4.2439
X6.0765Y-4.8139
X6.0845Y-4.3378
X6.0945Y-4.1809
X6.0965Y-4.6139
X6.1065Y-3.8939
X6.1215Y-3.5309
X6.1373Y-4.2849
X6.1565Y-3.8139
X6.1565Y-3.9139
X6.1575Y-4.4119
X6.1575Y-4.8409
X6.1865Y-4.2859
X6.1904Y-3.9376
X6.2065Y-4.0539
X6.2075Y-4.1079
X6.2145Y-4.2369
X6.2169Y-3.8539
X6.2202Y-3.6671
X6.2512Y-4.1591
X6.2515Y-4.1988
X6.2574Y-4.2422
X6.2765Y-3.3739
X6.3308Y-4.3884
X6.3565Y-4.5639
X6.3638Y-4.4011
X6.3823Y-3.83
X6.3875Y-3.7789
X6.3904Y-4.1299
X6.4227Y-4.2036
X6.4315Y-3.8719
X6.4342Y-3.8316
X6.4465Y-4.9739
X6.4765Y-4.8939
X6.4865Y-3.8639
X6.4865Y-4.8139
X6.4965Y-4.0039
X6.5465Y-4.0039
X6.6015Y-4.0589
X6.6365Y-4.5139
X6.6675Y-4.0869
X6.7165Y-4.8339
X6.7765Y-4.7039
X6.8065Y-4.2539
X6.8365Y-4.0039
X6.8625Y-3.7689
X7.1365Y-3.8939
X7.7265Y-3.3039
T2
X4.5958Y-4.8239
X4.5958Y-4.8987
T3
X6.6997Y-3.2558
X6.8769Y-3.2558
T4
X7.145Y-4.6752
X7.245Y-4.6752
X7.345Y-4.6752
X7.445Y-4.6752
X5.6965Y-3.6839
X5.7965Y-3.6839
X5.8965Y-3.6839
X5.9965Y-3.6839
X6.9565Y-4.8829
X6.9565Y-4.9829
X7.1365Y-3.2339
X7.2365Y-3.2339
X7.3365Y-3.2339
X7.4365Y-3.2339
X7.5365Y-3.2339
X7.6365Y-3.2339
X7.5965Y-4.6752
X7.6965Y-4.6752
X6.5465Y-4.9901
X6.6465Y-4.9901
X6.7465Y-4.9901
X4.0965Y-3.4339
X4.0965Y-3.5339
X4.1965Y-3.4339
X4.1965Y-3.5339
X4.2965Y-3.4339
X4.2965Y-3.5339
X4.3965Y-3.4339
X4.3965Y-3.5339
X4.4965Y-3.4339
X4.4965Y-3.5339
X4.5965Y-3.4339
X4.5965Y-3.5339
X4.6965Y-3.4339
X4.6965Y-3.5339
X4.7965Y-3.4339
X4.7965Y-3.5339
X4.8965Y-3.4339
X4.8965Y-3.5339
X4.9965Y-3.4339
X4.9965Y-3.5339
X5.0965Y-3.4339
X5.0965Y-3.5339
X5.1965Y-3.4339
X5.1965Y-3.5339
X5.2965Y-3.4339
X5.2965Y-3.5339
X5.3965Y-3.4339
X5.3965Y-3.5339
X5.4965Y-3.4339
X5.4965Y-3.5339
X5.5965Y-3.4339
X5.5965Y-3.5339
X5.6965Y-3.4339
X5.6965Y-3.5339
X5.7965Y-3.4339
X5.7965Y-3.5339
X5.8965Y-3.4339
X5.8965Y-3.5339
X5.9965Y-3.4339
X5.9965Y-3.5339
T5
X6.6505Y-3.3539
X6.9265Y-3.3539
T0
M30
