G04 #@! TF.GenerationSoftware,KiCad,Pcbnew,5.0.0*
G04 #@! TF.CreationDate,2018-08-01T03:46:19+02:00*
G04 #@! TF.ProjectId,mokki-dev-board,6D6F6B6B692D6465762D626F6172642E,rev?*
G04 #@! TF.SameCoordinates,Original*
G04 #@! TF.FileFunction,Legend,Bot*
G04 #@! TF.FilePolarity,Positive*
%FSLAX46Y46*%
G04 Gerber Fmt 4.6, Leading zero omitted, Abs format (unit mm)*
G04 Created by KiCad (PCBNEW 5.0.0) date Wed Aug  1 03:46:19 2018*
%MOMM*%
%LPD*%
G01*
G04 APERTURE LIST*
%ADD10C,0.200000*%
%ADD11C,0.300000*%
%ADD12C,0.120000*%
G04 APERTURE END LIST*
D10*
X190918000Y-128876000D02*
X190918000Y-128368000D01*
X191172000Y-128876000D02*
X190918000Y-128876000D01*
X191172000Y-122780000D02*
X191172000Y-128876000D01*
X190918000Y-122780000D02*
X191172000Y-122780000D01*
X190918000Y-128368000D02*
X190918000Y-122780000D01*
D11*
X194740000Y-124998428D02*
X194668571Y-124855571D01*
X194668571Y-124641285D01*
X194740000Y-124427000D01*
X194882857Y-124284142D01*
X195025714Y-124212714D01*
X195311428Y-124141285D01*
X195525714Y-124141285D01*
X195811428Y-124212714D01*
X195954285Y-124284142D01*
X196097142Y-124427000D01*
X196168571Y-124641285D01*
X196168571Y-124784142D01*
X196097142Y-124998428D01*
X196025714Y-125069857D01*
X195525714Y-125069857D01*
X195525714Y-124784142D01*
X196168571Y-125712714D02*
X194668571Y-125712714D01*
X196168571Y-126569857D01*
X194668571Y-126569857D01*
X196168571Y-127284142D02*
X194668571Y-127284142D01*
X194668571Y-127641285D01*
X194740000Y-127855571D01*
X194882857Y-127998428D01*
X195025714Y-128069857D01*
X195311428Y-128141285D01*
X195525714Y-128141285D01*
X195811428Y-128069857D01*
X195954285Y-127998428D01*
X196097142Y-127855571D01*
X196168571Y-127641285D01*
X196168571Y-127284142D01*
X192128571Y-125998428D02*
X192128571Y-126855571D01*
X193628571Y-126427000D02*
X192128571Y-126427000D01*
X192128571Y-127212714D02*
X193628571Y-128212714D01*
X192128571Y-128212714D02*
X193628571Y-127212714D01*
X189818571Y-123141285D02*
X188318571Y-123141285D01*
X189818571Y-123998428D01*
X188318571Y-123998428D01*
X189818571Y-125569857D02*
X189104285Y-125069857D01*
X189818571Y-124712714D02*
X188318571Y-124712714D01*
X188318571Y-125284142D01*
X188390000Y-125427000D01*
X188461428Y-125498428D01*
X188604285Y-125569857D01*
X188818571Y-125569857D01*
X188961428Y-125498428D01*
X189032857Y-125427000D01*
X189104285Y-125284142D01*
X189104285Y-124712714D01*
X189747142Y-126141285D02*
X189818571Y-126355571D01*
X189818571Y-126712714D01*
X189747142Y-126855571D01*
X189675714Y-126927000D01*
X189532857Y-126998428D01*
X189390000Y-126998428D01*
X189247142Y-126927000D01*
X189175714Y-126855571D01*
X189104285Y-126712714D01*
X189032857Y-126427000D01*
X188961428Y-126284142D01*
X188890000Y-126212714D01*
X188747142Y-126141285D01*
X188604285Y-126141285D01*
X188461428Y-126212714D01*
X188390000Y-126284142D01*
X188318571Y-126427000D01*
X188318571Y-126784142D01*
X188390000Y-126998428D01*
X188318571Y-127427000D02*
X188318571Y-128284142D01*
X189818571Y-127855571D02*
X188318571Y-127855571D01*
X187278571Y-126498428D02*
X185778571Y-126498428D01*
X185778571Y-127498428D02*
X185778571Y-127784142D01*
X185850000Y-127927000D01*
X185992857Y-128069857D01*
X186278571Y-128141285D01*
X186778571Y-128141285D01*
X187064285Y-128069857D01*
X187207142Y-127927000D01*
X187278571Y-127784142D01*
X187278571Y-127498428D01*
X187207142Y-127355571D01*
X187064285Y-127212714D01*
X186778571Y-127141285D01*
X186278571Y-127141285D01*
X185992857Y-127212714D01*
X185850000Y-127355571D01*
X185778571Y-127498428D01*
X183310000Y-124998428D02*
X183238571Y-124855571D01*
X183238571Y-124641285D01*
X183310000Y-124427000D01*
X183452857Y-124284142D01*
X183595714Y-124212714D01*
X183881428Y-124141285D01*
X184095714Y-124141285D01*
X184381428Y-124212714D01*
X184524285Y-124284142D01*
X184667142Y-124427000D01*
X184738571Y-124641285D01*
X184738571Y-124784142D01*
X184667142Y-124998428D01*
X184595714Y-125069857D01*
X184095714Y-125069857D01*
X184095714Y-124784142D01*
X184738571Y-125712714D02*
X183238571Y-125712714D01*
X184738571Y-126569857D01*
X183238571Y-126569857D01*
X184738571Y-127284142D02*
X183238571Y-127284142D01*
X183238571Y-127641285D01*
X183310000Y-127855571D01*
X183452857Y-127998428D01*
X183595714Y-128069857D01*
X183881428Y-128141285D01*
X184095714Y-128141285D01*
X184381428Y-128069857D01*
X184524285Y-127998428D01*
X184667142Y-127855571D01*
X184738571Y-127641285D01*
X184738571Y-127284142D01*
X182055714Y-125427000D02*
X182127142Y-125355571D01*
X182198571Y-125141285D01*
X182198571Y-124998428D01*
X182127142Y-124784142D01*
X181984285Y-124641285D01*
X181841428Y-124569857D01*
X181555714Y-124498428D01*
X181341428Y-124498428D01*
X181055714Y-124569857D01*
X180912857Y-124641285D01*
X180770000Y-124784142D01*
X180698571Y-124998428D01*
X180698571Y-125141285D01*
X180770000Y-125355571D01*
X180841428Y-125427000D01*
X182198571Y-126784142D02*
X182198571Y-126069857D01*
X180698571Y-126069857D01*
X182198571Y-127284142D02*
X180698571Y-127284142D01*
X182198571Y-128141285D02*
X181341428Y-127498428D01*
X180698571Y-128141285D02*
X181555714Y-127284142D01*
X150678571Y-123966571D02*
X151178571Y-123252285D01*
X151535714Y-123966571D02*
X151535714Y-122466571D01*
X150964285Y-122466571D01*
X150821428Y-122538000D01*
X150750000Y-122609428D01*
X150678571Y-122752285D01*
X150678571Y-122966571D01*
X150750000Y-123109428D01*
X150821428Y-123180857D01*
X150964285Y-123252285D01*
X151535714Y-123252285D01*
X150035714Y-123180857D02*
X149535714Y-123180857D01*
X149321428Y-123966571D02*
X150035714Y-123966571D01*
X150035714Y-122466571D01*
X149321428Y-122466571D01*
X148750000Y-123895142D02*
X148535714Y-123966571D01*
X148178571Y-123966571D01*
X148035714Y-123895142D01*
X147964285Y-123823714D01*
X147892857Y-123680857D01*
X147892857Y-123538000D01*
X147964285Y-123395142D01*
X148035714Y-123323714D01*
X148178571Y-123252285D01*
X148464285Y-123180857D01*
X148607142Y-123109428D01*
X148678571Y-123038000D01*
X148750000Y-122895142D01*
X148750000Y-122752285D01*
X148678571Y-122609428D01*
X148607142Y-122538000D01*
X148464285Y-122466571D01*
X148107142Y-122466571D01*
X147892857Y-122538000D01*
X147250000Y-123180857D02*
X146750000Y-123180857D01*
X146535714Y-123966571D02*
X147250000Y-123966571D01*
X147250000Y-122466571D01*
X146535714Y-122466571D01*
X146107142Y-122466571D02*
X145250000Y-122466571D01*
X145678571Y-123966571D02*
X145678571Y-122466571D01*
X174007142Y-123478571D02*
X174007142Y-124621428D01*
X174007142Y-126018571D02*
X174007142Y-127161428D01*
X174578571Y-126590000D02*
X173435714Y-126590000D01*
D12*
G04 #@! TO.C,SW1*
X172690000Y-128079000D02*
X172690000Y-126749000D01*
X171360000Y-128079000D02*
X172690000Y-128079000D01*
X170090000Y-128079000D02*
X170090000Y-125419000D01*
X170090000Y-125419000D02*
X164950000Y-125419000D01*
X170090000Y-128079000D02*
X164950000Y-128079000D01*
X164950000Y-128079000D02*
X164950000Y-125419000D01*
G04 #@! TO.C,BT1*
X175364000Y-122694600D02*
X178024000Y-122694600D01*
X175364000Y-125294600D02*
X175364000Y-122694600D01*
X178024000Y-125294600D02*
X178024000Y-122694600D01*
X175364000Y-125294600D02*
X178024000Y-125294600D01*
X175364000Y-126564600D02*
X175364000Y-127894600D01*
X175364000Y-127894600D02*
X176694000Y-127894600D01*
G04 #@! TO.C,SW2*
X150870000Y-124630000D02*
X146130000Y-124630000D01*
X150870000Y-124630000D02*
X150870000Y-125030000D01*
X146130000Y-124630000D02*
X146130000Y-125030000D01*
X150870000Y-129370000D02*
X150870000Y-128970000D01*
X150870000Y-129370000D02*
X146130000Y-129370000D01*
X146130000Y-129370000D02*
X146130000Y-128970000D01*
X146130000Y-128030000D02*
X146130000Y-125970000D01*
X150870000Y-128030000D02*
X150870000Y-125970000D01*
G04 #@! TO.C,J4*
X182536000Y-82670000D02*
X182536000Y-85330000D01*
X182536000Y-82670000D02*
X195296000Y-82670000D01*
X195296000Y-82670000D02*
X195296000Y-85330000D01*
X182536000Y-85330000D02*
X195296000Y-85330000D01*
X179936000Y-85330000D02*
X181266000Y-85330000D01*
X179936000Y-84000000D02*
X179936000Y-85330000D01*
G04 #@! TD*
M02*
