G04 #@! TF.GenerationSoftware,KiCad,Pcbnew,5.0.0*
G04 #@! TF.CreationDate,2018-07-30T23:26:50+02:00*
G04 #@! TF.ProjectId,mokki-dev-board,6D6F6B6B692D6465762D626F6172642E,rev?*
G04 #@! TF.SameCoordinates,Original*
G04 #@! TF.FileFunction,Soldermask,Bot*
G04 #@! TF.FilePolarity,Negative*
%FSLAX46Y46*%
G04 Gerber Fmt 4.6, Leading zero omitted, Abs format (unit mm)*
G04 Created by KiCad (PCBNEW 5.0.0) date Mon Jul 30 23:26:50 2018*
%MOMM*%
%LPD*%
G01*
G04 APERTURE LIST*
%ADD10C,1.400000*%
%ADD11O,2.100000X2.100000*%
%ADD12R,2.100000X2.100000*%
%ADD13C,2.500000*%
%ADD14C,2.150000*%
%ADD15R,2.000000X1.800000*%
%ADD16C,3.600000*%
G04 APERTURE END LIST*
D10*
G04 #@! TO.C,Y2*
X116732433Y-122527231D03*
X116732433Y-124427231D03*
G04 #@! TD*
D11*
G04 #@! TO.C,J2*
X189104000Y-118749000D03*
X186564000Y-118749000D03*
X184024000Y-118749000D03*
D12*
X181484000Y-118749000D03*
G04 #@! TD*
D11*
G04 #@! TO.C,J3*
X152310000Y-93570000D03*
X149770000Y-93570000D03*
X147230000Y-93570000D03*
D12*
X144690000Y-93570000D03*
G04 #@! TD*
D11*
G04 #@! TO.C,J5*
X195490000Y-118749000D03*
D12*
X192950000Y-118749000D03*
G04 #@! TD*
D11*
G04 #@! TO.C,J6*
X104050000Y-87220000D03*
X104050000Y-89760000D03*
X106590000Y-87220000D03*
X106590000Y-89760000D03*
X109130000Y-87220000D03*
X109130000Y-89760000D03*
X111670000Y-87220000D03*
X111670000Y-89760000D03*
X114210000Y-87220000D03*
X114210000Y-89760000D03*
X116750000Y-87220000D03*
X116750000Y-89760000D03*
X119290000Y-87220000D03*
X119290000Y-89760000D03*
X121830000Y-87220000D03*
X121830000Y-89760000D03*
X124370000Y-87220000D03*
X124370000Y-89760000D03*
X126910000Y-87220000D03*
X126910000Y-89760000D03*
X129450000Y-87220000D03*
X129450000Y-89760000D03*
X131990000Y-87220000D03*
X131990000Y-89760000D03*
X134530000Y-87220000D03*
X134530000Y-89760000D03*
X137070000Y-87220000D03*
X137070000Y-89760000D03*
X139610000Y-87220000D03*
X139610000Y-89760000D03*
X142150000Y-87220000D03*
X142150000Y-89760000D03*
X144690000Y-87220000D03*
X144690000Y-89760000D03*
X147230000Y-87220000D03*
X147230000Y-89760000D03*
X149770000Y-87220000D03*
X149770000Y-89760000D03*
X152310000Y-87220000D03*
D12*
X152310000Y-89760000D03*
G04 #@! TD*
D11*
G04 #@! TO.C,SW1*
X166280000Y-126749000D03*
X168820000Y-126749000D03*
D12*
X171360000Y-126749000D03*
G04 #@! TD*
D13*
G04 #@! TO.C,SW6*
X168922000Y-85188000D03*
D14*
X170172000Y-82698000D03*
X174672000Y-82698000D03*
D13*
X175932000Y-85188000D03*
G04 #@! TD*
D12*
G04 #@! TO.C,BT1*
X176694000Y-126564600D03*
D11*
X176694000Y-124024600D03*
G04 #@! TD*
D15*
G04 #@! TO.C,SW2*
X144900000Y-125622000D03*
X152100000Y-125622000D03*
X144900000Y-128622000D03*
X152100000Y-128622000D03*
G04 #@! TD*
D12*
G04 #@! TO.C,J4*
X181266000Y-82140000D03*
D11*
X183806000Y-82140000D03*
X186346000Y-82140000D03*
X188886000Y-82140000D03*
X191426000Y-82140000D03*
X193966000Y-82140000D03*
G04 #@! TD*
D16*
G04 #@! TO.C,REF\002A\002A*
X102780000Y-125828000D03*
G04 #@! TD*
M02*
